<svg viewBox="0 0 800 600" fill="none" xmlns="http://www.w3.org/2000/svg">
<path d="M374.62 94.2802C382.501 94.2802 388.89 87.8913 388.89 80.0102C388.89 72.1291 382.501 65.7402 374.62 65.7402C366.739 65.7402 360.35 72.1291 360.35 80.0102C360.35 87.8913 366.739 94.2802 374.62 94.2802Z" fill="#A07DF0"/>
<path d="M308.25 91.54H280.13C277.473 91.54 275.32 93.6935 275.32 96.35V116.23C275.32 118.887 277.473 121.04 280.13 121.04H308.25C310.906 121.04 313.06 118.887 313.06 116.23V96.35C313.06 93.6935 310.906 91.54 308.25 91.54Z" fill="#6788EC"/>
<path d="M302.24 114.22C300.62 115.72 293.14 115.55 288.66 114.9C287.585 114.798 286.531 114.542 285.53 114.14C284.23 113.44 283.8 104 285.15 103.87C286.33 103.76 287.34 103.64 288.22 103.51C292.09 102.93 293.42 101.99 295.34 99.3499C297.26 96.7099 298.41 96.4899 298.67 98.4699C298.86 99.8799 298.67 102.08 297.06 103.31C297.06 103.31 301.56 102.45 303.06 103.6C304.56 104.75 304.43 112.19 302.24 114.22Z" fill="#B7D1FF"/>
<path d="M302.24 114.22C300.62 115.72 293.14 115.55 288.66 114.9L288.57 114.72C287.57 112.72 287.01 104.95 288.22 103.51C292.09 102.93 293.42 101.99 295.34 99.3499C297.26 96.7099 298.41 96.4899 298.67 98.4699C298.86 99.8799 298.67 102.08 297.06 103.31C297.06 103.31 301.56 102.45 303.06 103.6C304.56 104.75 304.43 112.19 302.24 114.22Z" fill="white"/>
<path d="M260.06 171.77C268.488 171.77 275.32 164.938 275.32 156.51C275.32 148.082 268.488 141.25 260.06 141.25C251.632 141.25 244.8 148.082 244.8 156.51C244.8 164.938 251.632 171.77 260.06 171.77Z" fill="#A07DF0"/>
<path d="M289.12 220.91C296.018 220.91 301.61 215.318 301.61 208.42C301.61 201.522 296.018 195.93 289.12 195.93C282.222 195.93 276.63 201.522 276.63 208.42C276.63 215.318 282.222 220.91 289.12 220.91Z" fill="#A07DF0"/>
<path d="M419.07 302.37L407.16 303.91L377.54 307.75C377.54 307.75 361.54 236.46 358.54 230.44C355.12 223.44 355.85 219.6 355.85 219.6C353.02 220.09 350.85 220.16 347.15 213.9C344.57 209.58 345.84 202.63 347.15 201.09C348.78 199.19 353.49 196.65 358.81 195.24C364.13 193.83 366.13 194.08 366.13 194.08L362 171.74C366.58 169.41 367.8 171.37 370.41 178.29C373.02 185.21 380.14 203.29 380.14 203.29C380.67 197.06 381.32 194.07 383 193.93C385.15 193.74 387 201.11 387.61 205.82C388.75 214.39 386.71 221.09 388.45 226.48C389.66 230.19 400.06 263.11 401.45 265.48C401.921 266.218 402.665 266.739 403.52 266.93C406.01 267.55 409.35 266.22 409.35 266.22L419.07 302.37Z" fill="#F1A19E"/>
<path d="M361.45 142.77H320.25C317.593 142.77 315.44 144.924 315.44 147.58V174.82C315.44 177.477 317.593 179.63 320.25 179.63H361.45C364.106 179.63 366.26 177.477 366.26 174.82V147.58C366.26 144.924 364.106 142.77 361.45 142.77Z" fill="#6788EC"/>
<path d="M419.07 302.37L407.16 303.91L403.52 266.91C406.01 267.53 409.35 266.2 409.35 266.2L419.07 302.37Z" fill="#0B0E20"/>
<path d="M583.8 486.76C549.47 508.4 500.8 505.33 476.62 504.29C452.44 503.25 308.14 492.89 303.27 490.94C302.16 490.5 300.9 482.94 299.61 471.59C299.24 468.42 298.88 464.96 298.52 461.26C294.44 419.71 290.41 349.26 290.41 349.26L485.3 362.46C494.99 328.18 507.3 296.69 554.08 301.63C623.51 337.7 629.82 457.74 583.8 486.76Z" fill="#DDCCFB"/>
<path d="M311.64 268.11L395.4 272.53L416.06 347.14L329.89 338.32L311.64 268.11Z" fill="#0B0E20"/>
<path d="M403.85 332.8L462.3 338.68L460.61 348.77L402.73 343.17L403.85 332.8Z" fill="#0B0E20"/>
<path d="M311.15 507C283.92 515.14 270.15 515.81 261.89 512.74L289.63 475.46L291.51 472.93L298.04 464.15L297.16 462.7L296.82 462.14L293.29 456.33L280.75 435.73C280.75 435.73 268.55 380.37 263.45 360.83C254.3 325.74 266.59 319.4 285.84 323.09L286.31 323.18C303.11 326.53 309.15 327.44 309.15 327.44L315.96 362.14C315.96 362.14 317.17 372.68 318.96 385.56C320.58 397.49 322.65 411.44 324.62 420.88C325.14 423.37 325.62 425.55 326.15 427.29C328.15 434.37 331.34 446.06 334.24 457.08C334.96 459.83 335.67 462.54 336.34 465.08C336.47 465.57 336.59 466.08 336.72 466.55C336.96 467.55 337.2 468.42 337.43 469.33C339.43 477.08 340.82 483.09 340.97 484.64C341.33 489 338.39 498.89 311.15 507Z" fill="#F1A19E"/>
<path d="M336.3 465.17L297.16 462.74L289.29 462.25L293.29 456.37L318 420.08L324.62 420.92C325.14 423.41 325.62 425.59 326.15 427.33C327.32 431.46 328.89 437.15 330.57 443.33C331.46 446.63 332.39 450.09 333.3 453.54C333.62 454.72 333.93 455.91 334.24 457.09C334.92 459.87 335.63 462.58 336.3 465.17Z" fill="#A07DF0"/>
<path d="M333.26 453.57L325.26 447.32L330.5 443.32C331.42 446.66 332.35 450.12 333.26 453.57Z" fill="#DDCCFB"/>
<path d="M319.86 441.06H326.86L325.27 431.45C325.27 431.45 315.7 432.45 315.75 432.74C315.8 433.03 314.38 436.8 314.75 436.87C315.12 436.94 319.86 441.06 319.86 441.06Z" fill="#DDCCFB"/>
<path d="M310.42 458.62L321.12 451.56L315.77 442.69L307 443.36L298.94 454.93L301.43 459.84L310.42 458.62Z" fill="#DDCCFB"/>
<path d="M337.39 469.42C324.984 465.272 311.459 466.049 299.61 471.59C299.24 468.42 298.88 464.96 298.52 461.26C313.52 453.39 326.15 454.61 334.2 457.12C335.33 461.43 336.43 465.63 337.39 469.42Z" fill="white"/>
<path d="M311.15 507C283.92 515.14 270.15 515.81 261.89 512.74L276 493.87L281.48 486.51L289.67 475.51L291.55 472.98C304.44 464.98 320.87 451.91 336.72 466.65C336.96 467.65 337.2 468.52 337.43 469.43C338.13 472.2 338.76 474.74 339.29 476.94C340.29 480.94 340.87 483.74 340.97 484.74C341.33 489 338.39 498.89 311.15 507Z" fill="#B7D1FF"/>
<path d="M300.49 486L279.8 491.12L289.41 477.44C292.128 481.372 295.999 484.363 300.49 486Z" fill="#6788EC"/>
<path d="M306.81 484.4L306.95 483.82C299.47 482.02 294.61 478.82 291.95 473.82L297.08 466.52C297.34 473.84 304.15 478.2 313.43 482.75L306.81 484.4Z" fill="#6788EC"/>
<path d="M311.15 507C283.92 515.14 270.15 515.81 261.89 512.74L281.44 486.47C310.35 482.53 320.18 477.99 331.02 476.02C333.784 475.383 336.681 475.689 339.25 476.89C340.25 480.89 340.83 483.69 340.93 484.69C341.33 489 338.39 498.89 311.15 507Z" fill="#0B0E20"/>
<path d="M311.15 507C283.92 515.14 270.15 515.81 261.89 512.74L276 493.87C316.87 487.93 332 478.7 341 484.73C341.33 489 338.39 498.89 311.15 507Z" fill="#6788EC"/>
<path d="M318.92 385.6L314.79 390.09C310.15 370.69 296.86 338.61 285.79 323.09L286.26 323.18C303.06 326.53 309.1 327.44 309.1 327.44L315.91 362.14C315.91 362.14 317.17 372.72 318.92 385.6Z" fill="#0B0E20"/>
<path d="M368.09 332.8L298.04 321.81L317.94 391.44L368.09 332.8Z" fill="#A07DF0"/>
<path d="M379 387.38C379 387.38 370.82 380.9 366.57 385.71L366.5 385.78C364.33 388.31 332.55 427.45 310.2 455.25C297.78 470.7 288.2 482.68 288.2 483.02C245.13 497.8 250.88 463 250.88 463C250.88 463 262.28 447.72 276.88 428C295 403.6 318.07 372.42 330.61 355C350.03 328 359.61 328.56 370.49 331L372.95 331.56L379 387.38Z" fill="#F1A19E"/>
<path d="M278.54 426.29C278.447 426.29 278.356 426.264 278.277 426.215C278.198 426.166 278.134 426.097 278.093 426.013C278.051 425.93 278.034 425.837 278.042 425.745C278.05 425.652 278.084 425.564 278.14 425.49C287.05 413.49 300.14 395.83 311.89 379.84C311.968 379.732 312.086 379.66 312.217 379.64C312.349 379.619 312.483 379.652 312.59 379.73C312.697 379.808 312.769 379.926 312.79 380.057C312.811 380.188 312.778 380.322 312.7 380.43C300.95 396.43 287.86 414.08 278.95 426.08C278.904 426.145 278.842 426.198 278.771 426.235C278.699 426.271 278.62 426.29 278.54 426.29Z" fill="#0B0E20"/>
<path d="M379 387.38C379 387.38 370.82 380.9 366.57 385.71C366.13 368.71 367.51 343.71 370.57 330.97L373.03 331.53L379 387.38Z" fill="#0B0E20"/>
<path d="M526.56 352.32L525.69 364.67L519.53 381.49L515.53 392.56C505.81 393.81 487.81 393.76 466.26 393.73C438.85 393.73 420.26 398.18 406.45 402.66L374.81 392.9C374.81 392.9 369.25 350.82 373.05 331.53C373.05 331.53 381.31 333.53 389.22 335.68C392.04 336.45 394.82 337.23 397.16 337.96L454.61 343.8L459 344.25L526.56 352.32Z" fill="#B7D1FF"/>
<mask id="mask0_24_34070" style="mask-type:luminance" maskUnits="userSpaceOnUse" x="371" y="331" width="156" height="72">
<path d="M526.56 352.32L525.69 364.67L519.53 381.49L515.53 392.56C505.81 393.81 487.81 393.76 466.26 393.73C438.85 393.73 420.26 398.18 406.45 402.66L374.81 392.9C374.81 392.9 369.25 350.82 373.05 331.53C373.05 331.53 381.31 333.53 389.22 335.68C392.04 336.45 394.82 337.23 397.16 337.96L454.61 343.8L459 344.25L526.56 352.32Z" fill="white"/>
</mask>
<g mask="url(#mask0_24_34070)">
<path d="M616.66 335.16H379C378.867 335.16 378.74 335.107 378.646 335.013C378.553 334.919 378.5 334.792 378.5 334.66C378.5 334.527 378.553 334.4 378.646 334.306C378.74 334.212 378.867 334.16 379 334.16H616.7C616.833 334.16 616.96 334.212 617.054 334.306C617.147 334.4 617.2 334.527 617.2 334.66C617.2 334.792 617.147 334.919 617.054 335.013C616.96 335.107 616.833 335.16 616.7 335.16H616.66Z" fill="white"/>
<path d="M616.66 342.81H379C378.867 342.81 378.74 342.757 378.646 342.663C378.553 342.569 378.5 342.442 378.5 342.31C378.5 342.177 378.553 342.05 378.646 341.956C378.74 341.862 378.867 341.81 379 341.81H616.7C616.833 341.81 616.96 341.862 617.054 341.956C617.147 342.05 617.2 342.177 617.2 342.31C617.2 342.442 617.147 342.569 617.054 342.663C616.96 342.757 616.833 342.81 616.7 342.81H616.66Z" fill="white"/>
<path d="M616.66 350.47H379C378.867 350.47 378.74 350.417 378.646 350.323C378.553 350.23 378.5 350.102 378.5 349.97C378.5 349.837 378.553 349.71 378.646 349.616C378.74 349.522 378.867 349.47 379 349.47H616.7C616.833 349.47 616.96 349.522 617.054 349.616C617.147 349.71 617.2 349.837 617.2 349.97C617.2 350.102 617.147 350.23 617.054 350.323C616.96 350.417 616.833 350.47 616.7 350.47H616.66Z" fill="white"/>
<path d="M616.66 358.13H379C378.867 358.13 378.74 358.077 378.646 357.983C378.553 357.89 378.5 357.762 378.5 357.63C378.5 357.497 378.553 357.37 378.646 357.276C378.74 357.183 378.867 357.13 379 357.13H616.7C616.833 357.13 616.96 357.183 617.054 357.276C617.147 357.37 617.2 357.497 617.2 357.63C617.2 357.762 617.147 357.89 617.054 357.983C616.96 358.077 616.833 358.13 616.7 358.13H616.66Z" fill="white"/>
<path d="M616.66 365.78H379C378.867 365.78 378.74 365.727 378.646 365.633C378.553 365.54 378.5 365.412 378.5 365.28C378.5 365.147 378.553 365.02 378.646 364.926C378.74 364.832 378.867 364.78 379 364.78H616.7C616.833 364.78 616.96 364.832 617.054 364.926C617.147 365.02 617.2 365.147 617.2 365.28C617.2 365.412 617.147 365.54 617.054 365.633C616.96 365.727 616.833 365.78 616.7 365.78H616.66Z" fill="white"/>
<path d="M616.66 373.439H379C378.867 373.439 378.74 373.387 378.646 373.293C378.553 373.199 378.5 373.072 378.5 372.939C378.5 372.807 378.553 372.68 378.646 372.586C378.74 372.492 378.867 372.439 379 372.439H616.7C616.833 372.439 616.96 372.492 617.054 372.586C617.147 372.68 617.2 372.807 617.2 372.939C617.2 373.072 617.147 373.199 617.054 373.293C616.96 373.387 616.833 373.439 616.7 373.439H616.66Z" fill="white"/>
</g>
<path d="M454.56 343.8L449.36 352.99L448.82 356.82L414.21 353L386 340L389.18 335.67C392 336.44 394.78 337.22 397.12 337.95L454.56 343.8Z" fill="#A07DF0"/>
<path d="M519.53 381.49L515.53 392.56C505.81 393.81 487.81 393.76 466.26 393.73C438.85 393.73 420.26 398.18 406.45 402.66L374.81 392.9C374.81 392.9 369.25 350.82 373.05 331.53C373.05 331.53 381.31 333.53 389.22 335.68C392.04 336.45 394.82 337.23 397.16 337.96C406.27 341.62 454.43 359.16 519.53 381.49Z" fill="#A07DF0"/>
<path d="M577 329.07L536.48 328.46L534.82 319.46L527.4 355.95L449.36 353L458 294L416.35 306.43L404.65 264.58C404.65 264.58 438.48 253.97 451.49 250.17C466.85 245.68 478.19 247.54 486.61 247.17C487.61 247.12 488.61 247.05 489.48 246.96C496.54 246.27 498.4 244.59 498.4 244.59L511.7 243.98C513.696 245.781 515.939 247.29 518.36 248.46C523 250.74 528.95 252.35 537.7 254.3C551.22 257.3 554.08 261.81 563.21 286.46C571.26 308.11 577 329.07 577 329.07Z" fill="#B7D1FF"/>
<mask id="mask1_24_34070" style="mask-type:luminance" maskUnits="userSpaceOnUse" x="404" y="243" width="173" height="113">
<path d="M577 329.07L536.48 328.46L534.82 319.46L527.4 355.95L449.36 353L458 294L416.35 306.43L404.65 264.58C404.65 264.58 438.48 253.97 451.49 250.17C466.85 245.68 478.19 247.54 486.61 247.17C487.61 247.12 488.61 247.05 489.48 246.96C496.54 246.27 498.4 244.59 498.4 244.59L511.7 243.98C513.696 245.781 515.939 247.29 518.36 248.46C523 250.74 528.95 252.35 537.7 254.3C551.22 257.3 554.08 261.81 563.21 286.46C571.26 308.11 577 329.07 577 329.07Z" fill="white"/>
</mask>
<g mask="url(#mask1_24_34070)">
<path d="M616.66 250.93H379C378.867 250.93 378.74 250.878 378.646 250.784C378.553 250.69 378.5 250.563 378.5 250.43C378.5 250.298 378.553 250.17 378.646 250.077C378.74 249.983 378.867 249.93 379 249.93H616.7C616.833 249.93 616.96 249.983 617.054 250.077C617.147 250.17 617.2 250.298 617.2 250.43C617.2 250.563 617.147 250.69 617.054 250.784C616.96 250.878 616.833 250.93 616.7 250.93H616.66Z" fill="white"/>
<path d="M616.66 258.59H379C378.867 258.59 378.74 258.538 378.646 258.444C378.553 258.35 378.5 258.223 378.5 258.09C378.5 257.958 378.553 257.831 378.646 257.737C378.74 257.643 378.867 257.59 379 257.59H616.7C616.833 257.59 616.96 257.643 617.054 257.737C617.147 257.831 617.2 257.958 617.2 258.09C617.2 258.223 617.147 258.35 617.054 258.444C616.96 258.538 616.833 258.59 616.7 258.59H616.66Z" fill="white"/>
<path d="M616.66 266.24H379C378.867 266.24 378.74 266.188 378.646 266.094C378.553 266 378.5 265.873 378.5 265.74C378.5 265.608 378.553 265.48 378.646 265.387C378.74 265.293 378.867 265.24 379 265.24H616.7C616.833 265.24 616.96 265.293 617.054 265.387C617.147 265.48 617.2 265.608 617.2 265.74C617.2 265.873 617.147 266 617.054 266.094C616.96 266.188 616.833 266.24 616.7 266.24H616.66Z" fill="white"/>
<path d="M616.66 273.9H379C378.867 273.9 378.74 273.848 378.646 273.754C378.553 273.66 378.5 273.533 378.5 273.4C378.5 273.268 378.553 273.141 378.646 273.047C378.74 272.953 378.867 272.9 379 272.9H616.7C616.833 272.9 616.96 272.953 617.054 273.047C617.147 273.141 617.2 273.268 617.2 273.4C617.2 273.533 617.147 273.66 617.054 273.754C616.96 273.848 616.833 273.9 616.7 273.9H616.66Z" fill="white"/>
<path d="M616.66 281.56H379C378.867 281.56 378.74 281.507 378.646 281.414C378.553 281.32 378.5 281.193 378.5 281.06C378.5 280.927 378.553 280.8 378.646 280.707C378.74 280.613 378.867 280.56 379 280.56H616.7C616.833 280.56 616.96 280.613 617.054 280.707C617.147 280.8 617.2 280.927 617.2 281.06C617.2 281.193 617.147 281.32 617.054 281.414C616.96 281.507 616.833 281.56 616.7 281.56H616.66Z" fill="white"/>
<path d="M616.66 289.21H379C378.867 289.21 378.74 289.157 378.646 289.064C378.553 288.97 378.5 288.843 378.5 288.71C378.5 288.577 378.553 288.45 378.646 288.356C378.74 288.263 378.867 288.21 379 288.21H616.7C616.833 288.21 616.96 288.263 617.054 288.356C617.147 288.45 617.2 288.577 617.2 288.71C617.2 288.843 617.147 288.97 617.054 289.064C616.96 289.157 616.833 289.21 616.7 289.21H616.66Z" fill="white"/>
<path d="M616.66 296.87H379C378.867 296.87 378.74 296.817 378.646 296.724C378.553 296.63 378.5 296.503 378.5 296.37C378.5 296.238 378.553 296.11 378.646 296.017C378.74 295.923 378.867 295.87 379 295.87H616.7C616.833 295.87 616.96 295.923 617.054 296.017C617.147 296.11 617.2 296.238 617.2 296.37C617.2 296.503 617.147 296.63 617.054 296.724C616.96 296.817 616.833 296.87 616.7 296.87H616.66Z" fill="white"/>
<path d="M616.66 304.53H379C378.867 304.53 378.74 304.478 378.646 304.384C378.553 304.29 378.5 304.163 378.5 304.03C378.5 303.898 378.553 303.77 378.646 303.677C378.74 303.583 378.867 303.53 379 303.53H616.7C616.833 303.53 616.96 303.583 617.054 303.677C617.147 303.77 617.2 303.898 617.2 304.03C617.2 304.163 617.147 304.29 617.054 304.384C616.96 304.478 616.833 304.53 616.7 304.53H616.66Z" fill="white"/>
<path d="M616.66 312.19H379C378.867 312.19 378.74 312.138 378.646 312.044C378.553 311.95 378.5 311.823 378.5 311.69C378.5 311.558 378.553 311.431 378.646 311.337C378.74 311.243 378.867 311.19 379 311.19H616.7C616.833 311.19 616.96 311.243 617.054 311.337C617.147 311.431 617.2 311.558 617.2 311.69C617.2 311.823 617.147 311.95 617.054 312.044C616.96 312.138 616.833 312.19 616.7 312.19H616.66Z" fill="white"/>
<path d="M616.66 319.84H379C378.867 319.84 378.74 319.788 378.646 319.694C378.553 319.6 378.5 319.473 378.5 319.34C378.5 319.208 378.553 319.081 378.646 318.987C378.74 318.893 378.867 318.84 379 318.84H616.7C616.833 318.84 616.96 318.893 617.054 318.987C617.147 319.081 617.2 319.208 617.2 319.34C617.2 319.473 617.147 319.6 617.054 319.694C616.96 319.788 616.833 319.84 616.7 319.84H616.66Z" fill="white"/>
<path d="M616.66 327.5H379C378.867 327.5 378.74 327.447 378.646 327.354C378.553 327.26 378.5 327.133 378.5 327C378.5 326.867 378.553 326.74 378.646 326.646C378.74 326.553 378.867 326.5 379 326.5H616.7C616.833 326.5 616.96 326.553 617.054 326.646C617.147 326.74 617.2 326.867 617.2 327C617.2 327.133 617.147 327.26 617.054 327.354C616.96 327.447 616.833 327.5 616.7 327.5H616.66Z" fill="white"/>
<path d="M616.66 335.16H379C378.867 335.16 378.74 335.107 378.646 335.014C378.553 334.92 378.5 334.793 378.5 334.66C378.5 334.528 378.553 334.4 378.646 334.307C378.74 334.213 378.867 334.16 379 334.16H616.7C616.833 334.16 616.96 334.213 617.054 334.307C617.147 334.4 617.2 334.528 617.2 334.66C617.2 334.793 617.147 334.92 617.054 335.014C616.96 335.107 616.833 335.16 616.7 335.16H616.66Z" fill="white"/>
<path d="M616.66 342.81H379C378.867 342.81 378.74 342.757 378.646 342.664C378.553 342.57 378.5 342.443 378.5 342.31C378.5 342.177 378.553 342.05 378.646 341.957C378.74 341.863 378.867 341.81 379 341.81H616.7C616.833 341.81 616.96 341.863 617.054 341.957C617.147 342.05 617.2 342.177 617.2 342.31C617.2 342.443 617.147 342.57 617.054 342.664C616.96 342.757 616.833 342.81 616.7 342.81H616.66Z" fill="white"/>
<path d="M616.66 350.47H379C378.867 350.47 378.74 350.418 378.646 350.324C378.553 350.23 378.5 350.103 378.5 349.97C378.5 349.838 378.553 349.71 378.646 349.617C378.74 349.523 378.867 349.47 379 349.47H616.7C616.833 349.47 616.96 349.523 617.054 349.617C617.147 349.71 617.2 349.838 617.2 349.97C617.2 350.103 617.147 350.23 617.054 350.324C616.96 350.418 616.833 350.47 616.7 350.47H616.66Z" fill="white"/>
</g>
<path d="M458.53 327.3C454.23 325.19 451.18 327.44 445.33 327.6C436.97 327.83 434.51 327.78 434.82 329.81C435.13 331.84 441.28 335.39 446.89 334.67L458.53 327.3Z" fill="#F1A19E"/>
<path d="M564.4 361.89C556.34 363.35 520.91 365.21 503.1 365.28H502.1C498.3 365.28 494.89 365.28 491.83 365.28C480.83 365.2 474.51 364.8 471.45 362.95C467.55 360.59 460.85 355.75 460.85 355.75C458.85 358.31 451.59 358.58 445.85 351.22C440.54 344.49 437.48 338.57 446 332.62C448.285 330.927 450.662 329.362 453.12 327.93C456.76 326.01 458.61 326.79 463.29 330.25C467.519 333.511 472.019 336.405 476.74 338.9L483.62 338.69L494.78 338.34L531.32 337.2L541.03 336.9L540.85 336.2L538.85 328.52L572.02 329.02C572.16 329.92 572.29 330.79 572.42 331.65C573.13 336.43 573.71 340.75 574.59 346.13C576.11 355.94 568.9 361.07 564.4 361.89Z" fill="#F1A19E"/>
<path d="M503.1 365.28H502.1C498.3 365.28 494.89 365.28 491.83 365.28L483.57 338.69L494.73 338.34L503.1 365.28Z" fill="#0B0E20"/>
<path d="M518.39 248.47C511.49 263.41 492.68 263.35 489.51 246.97C496.57 246.28 498.43 244.6 498.43 244.6L511.73 243.99C513.726 245.792 515.969 247.3 518.39 248.47Z" fill="#6788EC"/>
<path d="M484.23 205.31C476.5 203.71 476.23 214.7 483.39 215.37C483.43 215.1 484.23 205.31 484.23 205.31Z" fill="#F1A19E"/>
<path d="M484.16 199.56C480.42 199.72 476.09 196.56 481.22 191.45C486.87 185.82 498.49 184.6 505.04 188C505.04 188 503.48 183.56 505.24 183.53C507.83 183.53 510.79 189.95 510.79 189.95C512.33 188.76 517.88 191.13 519.55 198.85C521.62 208.4 519.91 214.96 519.71 219.28C519.51 223.6 519.36 224.42 520.71 226.72C523.33 231.29 520.88 234.72 516.9 232.52C516.9 234.28 516.75 237.72 509.76 237.87C502.77 238.02 488.13 221.56 488.13 221.56L484.16 199.56Z" fill="#0B0E20"/>
<path d="M510.34 222.47C510.34 222.47 510.46 223.53 510.67 225.2C511.21 229.34 512.3 237.2 513.47 242.2C515.12 249.13 511.71 253.75 505.33 254.73C498.95 255.71 495.22 252.21 494.23 249.24C493.71 247.69 493.29 242.96 492.99 238.8C492.74 234.99 492.58 231.64 492.58 231.64C481.94 230.39 479.83 218.31 484.16 199.59C485.676 199.584 487.171 199.242 488.54 198.59C484.12 204.37 498.87 200.67 498.87 200.67C494.36 206.67 508.96 203.5 508.96 203.5C508.96 203.5 507.8 208.5 509.15 211.12C511.01 214.7 513.64 210.36 515.97 214.02C518.76 218.38 514.56 222.82 510.34 222.47Z" fill="#F1A19E"/>
<path d="M458 294.54C457.935 294.53 457.872 294.508 457.816 294.474C457.76 294.44 457.711 294.395 457.672 294.342C457.633 294.289 457.605 294.229 457.589 294.165C457.573 294.101 457.57 294.035 457.58 293.97L459.42 282.4C459.441 282.267 459.514 282.149 459.623 282.07C459.732 281.991 459.867 281.959 460 281.98C460.133 282.001 460.251 282.074 460.33 282.183C460.409 282.292 460.441 282.427 460.42 282.56L458.58 294.13C458.569 294.195 458.545 294.257 458.51 294.313C458.475 294.369 458.429 294.418 458.375 294.456C458.321 294.494 458.261 294.521 458.196 294.535C458.132 294.55 458.065 294.551 458 294.54Z" fill="#0B0E20"/>
<path d="M374.62 216.82H374.52C374.456 216.807 374.395 216.781 374.34 216.745C374.286 216.708 374.239 216.661 374.203 216.606C374.167 216.551 374.142 216.49 374.129 216.425C374.117 216.361 374.117 216.294 374.13 216.23C375.45 209.76 378.13 207.4 379.01 206.62L379.17 206.48C379.427 205.411 379.574 204.319 379.61 203.22C379.62 203.088 379.681 202.964 379.781 202.877C379.882 202.79 380.013 202.746 380.145 202.755C380.278 202.764 380.401 202.826 380.489 202.926C380.576 203.027 380.62 203.158 380.61 203.29C380.573 204.457 380.416 205.616 380.14 206.75C380.067 207.008 379.903 207.231 379.68 207.38C378.86 208.1 376.37 210.3 375.12 216.44C375.093 216.551 375.028 216.649 374.937 216.718C374.846 216.788 374.734 216.823 374.62 216.82Z" fill="#0B0E20"/>
<path d="M355.89 220.1C355.757 220.113 355.625 220.073 355.522 219.989C355.419 219.904 355.353 219.782 355.34 219.65C355.327 219.517 355.367 219.385 355.451 219.282C355.535 219.178 355.657 219.113 355.79 219.1C359.93 218.25 366.21 215.9 366.61 214.1C366.77 213.39 366.13 212.19 365.39 210.79C363.39 207.03 360.39 201.34 365.76 193.73C365.837 193.621 365.954 193.547 366.085 193.525C366.216 193.502 366.351 193.533 366.46 193.61C366.569 193.687 366.642 193.804 366.665 193.935C366.687 194.066 366.657 194.201 366.58 194.31C361.58 201.42 364.39 206.78 366.28 210.31C367.15 211.94 367.84 213.24 367.59 214.31C366.93 217.19 358.13 219.58 355.99 220.02L355.89 220.1Z" fill="#0B0E20"/>
<path d="M363.86 217.45C363.764 217.45 363.67 217.422 363.59 217.37C356.32 212.66 354.13 204.16 357.9 195.18C357.924 195.117 357.96 195.06 358.007 195.011C358.053 194.963 358.109 194.924 358.171 194.898C358.233 194.871 358.299 194.858 358.367 194.857C358.434 194.857 358.501 194.871 358.563 194.897C358.625 194.923 358.681 194.962 358.727 195.01C358.774 195.059 358.81 195.116 358.835 195.179C358.859 195.242 358.87 195.309 358.867 195.376C358.865 195.443 358.849 195.509 358.82 195.57C355.26 204.07 357.29 212.1 364.13 216.57C364.22 216.629 364.29 216.715 364.327 216.816C364.365 216.917 364.369 217.028 364.338 217.131C364.308 217.235 364.245 217.325 364.159 217.39C364.073 217.455 363.968 217.49 363.86 217.49V217.45Z" fill="#0B0E20"/>
<path d="M357.68 219.67C357.572 219.67 357.466 219.635 357.38 219.57C351.64 215.35 349.02 205.04 351.79 197.49C351.838 197.369 351.931 197.271 352.049 197.218C352.168 197.164 352.303 197.159 352.425 197.203C352.548 197.247 352.648 197.338 352.705 197.455C352.762 197.572 352.771 197.706 352.73 197.83C350.15 204.83 352.64 214.83 357.97 218.76C358.054 218.823 358.116 218.911 358.147 219.011C358.178 219.111 358.177 219.219 358.144 219.318C358.111 219.418 358.047 219.504 357.962 219.566C357.877 219.627 357.775 219.66 357.67 219.66L357.68 219.67Z" fill="#0B0E20"/>
<path d="M514.24 217.88C514.16 217.88 514.081 217.862 514.009 217.825C513.938 217.788 513.876 217.735 513.83 217.67C513.677 217.428 513.475 217.22 513.237 217.06C513 216.9 512.732 216.791 512.45 216.74C511.73 216.667 511.011 216.883 510.45 217.34C510.344 217.42 510.21 217.454 510.079 217.435C509.948 217.416 509.829 217.346 509.75 217.24C509.67 217.134 509.636 217.001 509.655 216.869C509.674 216.738 509.744 216.62 509.85 216.54C510.238 216.23 510.683 216.001 511.161 215.866C511.638 215.73 512.137 215.691 512.63 215.75C513.037 215.828 513.424 215.988 513.768 216.22C514.112 216.452 514.405 216.752 514.63 217.1C514.683 217.175 514.715 217.263 514.721 217.355C514.728 217.447 514.709 217.539 514.666 217.62C514.624 217.702 514.56 217.77 514.481 217.818C514.402 217.866 514.312 217.89 514.22 217.89L514.24 217.88Z" fill="#0B0E20"/>
<path d="M510.67 225.2C508.76 228.36 503.19 236.04 492.99 238.77C492.74 234.96 492.58 231.61 492.58 231.61C500.83 230.96 505.21 228.4 508.21 220.96C508.702 221.716 509.464 222.255 510.34 222.47C510.34 222.47 510.46 223.53 510.67 225.2Z" fill="#0B0E20"/>
<path d="M497.032 210.715C497.351 209.808 497.174 208.921 496.638 208.732C496.101 208.543 495.408 209.125 495.089 210.032C494.77 210.938 494.947 211.826 495.483 212.015C496.02 212.204 496.713 211.622 497.032 210.715Z" fill="#0B0E20"/>
<path d="M488.108 207.578C488.427 206.671 488.25 205.783 487.713 205.595C487.177 205.406 486.483 205.988 486.165 206.895C485.846 207.801 486.022 208.689 486.559 208.878C487.096 209.066 487.789 208.484 488.108 207.578Z" fill="#0B0E20"/>
<path d="M490.69 216.42C490.63 216.431 490.569 216.431 490.51 216.42C488.13 215.52 487.4 215.09 487.88 213.53C488.261 212.578 488.737 211.667 489.3 210.81C489.63 210.27 489.96 209.71 490.24 209.18C490.307 209.073 490.412 208.995 490.535 208.962C490.657 208.93 490.787 208.945 490.899 209.004C491.011 209.064 491.096 209.164 491.137 209.284C491.178 209.404 491.172 209.535 491.12 209.65C490.83 210.19 490.49 210.76 490.12 211.32C489.603 212.114 489.161 212.954 488.8 213.83C488.58 214.53 488.55 214.62 490.8 215.48C490.932 215.504 491.05 215.58 491.127 215.69C491.204 215.801 491.234 215.937 491.21 216.07C491.186 216.203 491.11 216.32 491 216.397C490.889 216.474 490.752 216.504 490.62 216.48L490.69 216.42Z" fill="#0B0E20"/>
<path d="M491.06 221.72C490.219 221.7 489.406 221.421 488.73 220.92C488.629 220.842 488.561 220.727 488.542 220.601C488.523 220.474 488.552 220.345 488.626 220.24C488.699 220.134 488.809 220.061 488.935 220.035C489.06 220.009 489.191 220.033 489.3 220.1C490.78 221.1 492.2 220.89 493.75 219.31C493.794 219.258 493.849 219.215 493.911 219.184C493.973 219.154 494.04 219.136 494.109 219.133C494.178 219.13 494.247 219.141 494.311 219.166C494.375 219.191 494.434 219.228 494.483 219.277C494.532 219.325 494.57 219.383 494.596 219.447C494.622 219.511 494.634 219.58 494.632 219.648C494.629 219.717 494.613 219.785 494.583 219.847C494.554 219.91 494.512 219.965 494.46 220.01C494.04 220.512 493.521 220.922 492.937 221.217C492.352 221.511 491.713 221.682 491.06 221.72Z" fill="#0B0E20"/>
<path d="M288.91 199.73C289.146 199.73 289.373 199.824 289.54 199.991C289.706 200.158 289.8 200.384 289.8 200.62V201.62C290.536 201.669 291.256 201.86 291.92 202.18C292.031 202.234 292.124 202.318 292.189 202.422C292.255 202.526 292.29 202.647 292.29 202.77V204.05C292.294 204.168 292.265 204.285 292.207 204.388C292.148 204.49 292.063 204.575 291.959 204.632C291.855 204.689 291.738 204.716 291.62 204.71C291.502 204.705 291.388 204.667 291.29 204.6C290.838 204.291 290.307 204.117 289.76 204.1C289.397 204.111 289.047 204.237 288.76 204.46C288.603 204.573 288.477 204.724 288.393 204.899C288.309 205.074 288.27 205.266 288.28 205.46C288.28 205.609 288.309 205.757 288.368 205.895C288.426 206.033 288.512 206.157 288.62 206.26C289.072 206.631 289.582 206.925 290.13 207.13C290.713 207.372 291.269 207.674 291.79 208.03C292.211 208.344 292.553 208.752 292.79 209.22C293.061 209.734 293.198 210.309 293.19 210.89C293.196 211.81 292.905 212.708 292.36 213.45C291.715 214.251 290.809 214.8 289.8 215V216.17C289.8 216.406 289.706 216.632 289.54 216.799C289.373 216.966 289.146 217.06 288.91 217.06C288.674 217.06 288.448 216.966 288.281 216.799C288.114 216.632 288.02 216.406 288.02 216.17V215.17C287.143 215.118 286.284 214.897 285.49 214.52C285.374 214.468 285.276 214.384 285.207 214.277C285.138 214.171 285.101 214.047 285.1 213.92V212.56C285.098 212.443 285.128 212.327 285.188 212.226C285.247 212.125 285.333 212.042 285.436 211.986C285.539 211.93 285.656 211.904 285.773 211.91C285.89 211.916 286.003 211.954 286.1 212.02C286.686 212.436 287.382 212.67 288.1 212.69C288.592 212.707 289.071 212.535 289.44 212.21C289.617 212.062 289.759 211.877 289.856 211.668C289.953 211.459 290.002 211.231 290 211C290.002 210.812 289.964 210.625 289.888 210.452C289.813 210.28 289.701 210.126 289.56 210C289.097 209.637 288.581 209.347 288.03 209.14C287.208 208.816 286.472 208.306 285.88 207.65C285.37 207.029 285.107 206.243 285.14 205.44C285.114 204.625 285.372 203.826 285.87 203.18C286.449 202.505 287.209 202.009 288.06 201.75V200.61C288.063 200.382 288.152 200.164 288.31 200.001C288.468 199.837 288.683 199.74 288.91 199.73Z" fill="white"/>
<path d="M374.41 71.3198C374.646 71.3198 374.873 71.4136 375.04 71.5805C375.206 71.7474 375.3 71.9738 375.3 72.2098V73.2098C376.036 73.2593 376.756 73.4494 377.42 73.7698C377.531 73.8239 377.624 73.9078 377.689 74.0121C377.755 74.1163 377.79 74.2368 377.79 74.3598V75.6398C377.794 75.7579 377.765 75.8748 377.707 75.9775C377.648 76.0802 377.563 76.1647 377.459 76.2217C377.355 76.2786 377.238 76.3058 377.12 76.3002C377.002 76.2946 376.888 76.2564 376.79 76.1898C376.338 75.8806 375.807 75.7071 375.26 75.6898C374.897 75.7012 374.547 75.8273 374.26 76.0498C374.103 76.1632 373.977 76.3141 373.893 76.4887C373.809 76.6634 373.77 76.8563 373.78 77.0498C373.78 77.1993 373.809 77.3473 373.868 77.4848C373.926 77.6224 374.012 77.7466 374.12 77.8498C374.572 78.2213 375.082 78.5153 375.63 78.7198C376.213 78.962 376.769 79.2636 377.29 79.6198C377.711 79.9342 378.053 80.3415 378.29 80.8098C378.561 81.3243 378.698 81.8985 378.69 82.4798C378.696 83.4002 378.405 84.2979 377.86 85.0398C377.235 85.8555 376.343 86.4254 375.34 86.6498V87.7998C375.34 88.0359 375.246 88.2622 375.08 88.4291C374.913 88.5961 374.686 88.6898 374.45 88.6898C374.214 88.6898 373.988 88.5961 373.821 88.4291C373.654 88.2622 373.56 88.0359 373.56 87.7998V86.7998C372.683 86.7477 371.824 86.527 371.03 86.1498C370.914 86.0979 370.816 86.0137 370.747 85.9073C370.678 85.8009 370.641 85.6767 370.64 85.5498V84.1998C370.638 84.0826 370.668 83.967 370.728 83.8658C370.787 83.7645 370.873 83.6815 370.976 83.6258C371.079 83.57 371.196 83.5437 371.313 83.5498C371.43 83.5558 371.543 83.5938 371.64 83.6598C372.226 84.0762 372.922 84.3094 373.64 84.3298C374.132 84.3464 374.611 84.1747 374.98 83.8498C375.155 83.6991 375.294 83.5114 375.387 83.3005C375.481 83.0895 375.526 82.8605 375.52 82.6298C375.522 82.4414 375.484 82.2547 375.409 82.0822C375.333 81.9097 375.221 81.7554 375.08 81.6298C374.617 81.2665 374.101 80.9765 373.55 80.7698C372.728 80.4456 371.992 79.9356 371.4 79.2798C370.89 78.659 370.627 77.8724 370.66 77.0698C370.634 76.2547 370.892 75.4558 371.39 74.8098C371.969 74.1347 372.729 73.6387 373.58 73.3798V72.2098C373.58 71.9838 373.665 71.7661 373.819 71.6008C373.973 71.4355 374.185 71.3351 374.41 71.3198Z" fill="white"/>
<path d="M460.83 356.22C460.717 356.219 460.608 356.181 460.52 356.11C459.832 355.52 459.056 355.041 458.22 354.69C458.155 354.69 458.091 354.677 458.032 354.652C457.972 354.626 457.918 354.589 457.873 354.542C457.829 354.496 457.794 354.44 457.771 354.38C457.748 354.319 457.737 354.255 457.74 354.19C457.745 354.056 457.802 353.928 457.899 353.835C457.996 353.742 458.126 353.69 458.26 353.69C459.325 354.016 460.305 354.572 461.13 355.32C461.211 355.385 461.269 355.473 461.298 355.572C461.326 355.671 461.323 355.777 461.289 355.874C461.255 355.972 461.192 356.057 461.108 356.117C461.024 356.177 460.923 356.209 460.82 356.21L460.83 356.22Z" fill="#0B0E20"/>
<path d="M572.34 331.62C560.39 332.39 546.15 335.09 540.78 336.17L538.78 328.49L571.95 328.99C572.08 329.89 572.21 330.76 572.34 331.62Z" fill="#0B0E20"/>
<path d="M492.86 358.39C497.151 358.39 500.63 354.911 500.63 350.62C500.63 346.329 497.151 342.85 492.86 342.85C488.569 342.85 485.09 346.329 485.09 350.62C485.09 354.911 488.569 358.39 492.86 358.39Z" fill="#0B0E20"/>
<path d="M492.86 356.12C495.897 356.12 498.36 353.658 498.36 350.62C498.36 347.583 495.897 345.12 492.86 345.12C489.822 345.12 487.36 347.583 487.36 350.62C487.36 353.658 489.822 356.12 492.86 356.12Z" fill="white"/>
<path d="M494.7 353.75C494.61 353.75 494.522 353.726 494.444 353.681C494.367 353.635 494.303 353.569 494.26 353.49L492.65 350.62L490.3 351.75C490.182 351.796 490.051 351.796 489.934 351.75C489.816 351.704 489.721 351.614 489.666 351.5C489.612 351.386 489.602 351.256 489.64 351.135C489.678 351.014 489.76 350.913 489.87 350.85L492.65 349.52C492.765 349.466 492.896 349.458 493.016 349.497C493.137 349.536 493.238 349.619 493.3 349.73L495.14 353.02C495.182 353.096 495.203 353.182 495.201 353.269C495.2 353.356 495.176 353.441 495.131 353.516C495.087 353.59 495.024 353.652 494.948 353.695C494.872 353.738 494.787 353.76 494.7 353.76V353.75Z" fill="#0B0E20"/>
<path d="M451.11 356.22H450.95C450.826 356.177 450.724 356.086 450.666 355.968C450.608 355.851 450.598 355.715 450.64 355.59C452.22 350.95 456.82 348.59 457.01 348.5C457.126 348.451 457.257 348.449 457.375 348.492C457.494 348.536 457.591 348.623 457.648 348.736C457.705 348.848 457.717 348.979 457.682 349.1C457.648 349.221 457.568 349.325 457.46 349.39C457.46 349.39 453.03 351.67 451.58 355.91C451.542 356.003 451.476 356.082 451.393 356.137C451.309 356.193 451.21 356.221 451.11 356.22Z" fill="#0B0E20"/>
<path d="M445.78 351.69C445.698 351.689 445.618 351.669 445.546 351.63C445.474 351.591 445.412 351.535 445.367 351.467C445.321 351.399 445.293 351.321 445.285 351.239C445.277 351.158 445.289 351.076 445.32 351C446.92 347.325 449.71 344.296 453.24 342.4C453.358 342.354 453.489 342.354 453.606 342.4C453.724 342.446 453.82 342.536 453.874 342.65C453.929 342.764 453.938 342.894 453.9 343.015C453.862 343.136 453.78 343.237 453.67 343.3C450.374 345.11 447.764 347.952 446.24 351.39C446.201 351.479 446.137 351.555 446.055 351.609C445.973 351.662 445.878 351.69 445.78 351.69Z" fill="#0B0E20"/>
<path d="M442.08 346.26C442 346.26 441.92 346.241 441.849 346.204C441.778 346.167 441.717 346.113 441.671 346.047C441.625 345.982 441.595 345.906 441.584 345.826C441.574 345.747 441.583 345.666 441.61 345.59C443.044 341.641 445.686 338.243 449.16 335.88C449.274 335.811 449.411 335.79 449.54 335.822C449.669 335.854 449.781 335.936 449.85 336.05C449.919 336.164 449.94 336.301 449.908 336.43C449.876 336.56 449.794 336.671 449.68 336.74C446.419 339.004 443.933 342.216 442.56 345.94C442.523 346.037 442.457 346.119 442.371 346.176C442.285 346.234 442.183 346.263 442.08 346.26Z" fill="#0B0E20"/>
<path d="M401.93 404.66C401.797 404.683 401.661 404.652 401.552 404.574C401.442 404.496 401.368 404.378 401.345 404.245C401.323 404.113 401.354 403.976 401.431 403.867C401.509 403.757 401.627 403.683 401.76 403.66C403.193 403.16 404.687 402.66 406.24 402.16C418.06 398.31 437.08 393.16 465.85 393.16H467.41C488.06 393.16 505.9 393.21 515.41 391.99C517.226 391.802 519.018 391.434 520.76 390.89C520.881 390.859 521.01 390.875 521.12 390.934C521.23 390.993 521.315 391.091 521.356 391.209C521.397 391.327 521.393 391.456 521.344 391.571C521.295 391.686 521.204 391.779 521.09 391.83C519.283 392.394 517.423 392.776 515.54 392.97C505.97 394.2 488.11 394.17 467.41 394.15H465.85C437.22 394.15 418.31 399.23 406.55 403.06C405.003 403.56 403.517 404.06 402.09 404.56C402.044 404.604 401.989 404.638 401.93 404.66Z" fill="#0B0E20"/>
<path d="M310.16 455.25L304.54 462.25C300.33 467.51 296.66 472.11 293.87 475.63C290.33 480.11 288.21 482.86 288.21 483.02C286.86 483.48 285.55 483.9 284.29 484.27C245.49 495.65 250.88 463 250.88 463L261.06 449.34L267.46 440.75L271.58 435.21L276.93 428L310.16 455.25Z" fill="#A07DF0"/>
<path d="M293.87 475.63C290.33 480.11 288.21 482.86 288.21 483.02C286.86 483.48 285.55 483.9 284.29 484.27L283.14 475.1L293.87 475.63Z" fill="#DDCCFB"/>
<path d="M264.45 466.54L269.03 473.19L274.03 466.96L264.45 466.54Z" fill="#DDCCFB"/>
<path d="M287.77 455.94L283.27 464.42L290.06 465.39L287.77 455.94Z" fill="#DDCCFB"/>
<path d="M278.1 437.2L278.87 449.53L288.19 444.41L278.1 437.2Z" fill="#DDCCFB"/>
<path d="M271.23 450.95L261.06 449.3L267.46 440.71L271.23 450.95Z" fill="#DDCCFB"/>
<path d="M448.82 357.32C448.764 357.33 448.706 357.33 448.65 357.32L378.79 331.47C378.728 331.447 378.672 331.412 378.623 331.367C378.575 331.322 378.536 331.269 378.509 331.209C378.481 331.149 378.466 331.084 378.464 331.018C378.461 330.952 378.472 330.887 378.495 330.825C378.518 330.763 378.553 330.707 378.598 330.659C378.643 330.61 378.696 330.571 378.756 330.544C378.816 330.517 378.881 330.501 378.947 330.499C379.013 330.496 379.078 330.507 379.14 330.53L449 356.35C449.133 356.373 449.251 356.447 449.329 356.557C449.406 356.666 449.437 356.802 449.415 356.935C449.392 357.068 449.318 357.186 449.208 357.264C449.099 357.342 448.962 357.373 448.83 357.35L448.82 357.32Z" fill="#0B0E20"/>
<path d="M310.16 455.25L304.54 462.25L271.54 435.17L276.89 427.96L310.16 455.25Z" fill="white"/>
<path d="M589 478.32C589 478.32 595.4 476.7 596.67 482.64C598.41 490.78 596.44 498.28 594.16 500.52C591.16 503.52 585.16 500.52 585.16 500.52L589 478.32Z" fill="#B7D1FF"/>
<path d="M484.61 477.09C482.43 501.85 475.67 522.14 469.53 522.42C463.39 522.7 460.18 502.84 462.37 478.08C464.56 453.32 471.31 433.03 477.45 432.75C483.59 432.47 486.8 452.33 484.61 477.09Z" fill="#6788EC"/>
<path d="M476.71 476.82C476.21 481.98 477.98 486.3 482.39 486.73C486.8 487.16 490.78 483.33 491.28 478.17C491.78 473.01 488.61 468.49 484.21 468.06C479.81 467.63 477.21 471.66 476.71 476.82Z" fill="white"/>
<path d="M584.63 504.47C576.38 504.84 555.77 502.18 541.41 502.12C525.82 502.07 508.5 507.29 483.93 516.12C482.53 516.62 481.21 517.12 479.93 517.71C478.06 518.53 476.35 519.36 474.74 520.07C474.22 520.3 473.74 520.52 473.2 520.72C472.86 520.87 472.53 520.99 472.2 521.11C477.51 516.19 482.72 498.29 484.59 477.11C486.46 455.93 484.38 438.32 479.88 433.87C480.41 434.04 480.93 434.24 481.45 434.46L482.05 434.72C482.47 434.91 482.88 435.12 483.3 435.35L483.84 435.65C484.65 436.1 485.46 436.65 486.3 437.18C486.71 437.46 487.12 437.76 487.54 438.06C489.23 439.29 491.05 440.74 493.14 442.4C505.63 452.34 536.14 466.64 544.83 468.05H545.1C564.87 471.25 574.59 472.2 583.46 472.94C597.44 474.13 594.25 504 584.63 504.47Z" fill="#B7D1FF"/>
<path d="M489.51 475.08C488.22 492.38 484.51 507.91 479.95 517.68C478.08 518.5 476.37 519.33 474.76 520.04C474.24 520.27 473.76 520.49 473.22 520.69C472.88 520.84 472.55 520.96 472.22 521.08C477.53 516.16 482.74 498.26 484.61 477.08C486.48 455.9 484.4 438.29 479.9 433.84C480.43 434.01 480.95 434.21 481.47 434.43L482.07 434.69C482.49 434.88 482.9 435.09 483.32 435.32L483.86 435.62C484.67 436.07 485.48 436.62 486.32 437.15C486.73 437.43 487.14 437.73 487.56 438.03C489.78 447.26 490.61 460.39 489.51 475.08Z" fill="#0B0E20"/>
<path d="M584.63 504.47C576.38 504.84 555.77 502.18 541.41 502.12C549.11 491.41 549.91 479.66 545.12 468.07C564.89 471.27 574.61 472.22 583.48 472.96C597.44 474.13 594.25 504 584.63 504.47Z" fill="#6788EC"/>
<path d="M575.22 499.46L573 525.59C572.876 526.848 572.502 528.068 571.899 529.179C571.297 530.29 570.478 531.269 569.491 532.058C568.504 532.848 567.369 533.432 566.153 533.776C564.937 534.12 563.664 534.217 562.41 534.061C561.156 533.906 559.945 533.501 558.85 532.87C557.755 532.24 556.797 531.396 556.033 530.389C555.269 529.383 554.714 528.234 554.401 527.009C554.088 525.785 554.023 524.51 554.21 523.26L558.43 497.42C558.748 495.434 559.763 493.625 561.293 492.319C562.823 491.012 564.768 490.293 566.78 490.29C567.07 490.29 567.37 490.29 567.67 490.29C569.88 490.523 571.91 491.614 573.322 493.33C574.734 495.045 575.416 497.247 575.22 499.46Z" fill="#B7D1FF"/>
<path d="M571.25 530.31C570.216 531.754 568.796 532.878 567.154 533.554C565.511 534.23 563.711 534.43 561.96 534.132C560.209 533.834 558.577 533.049 557.251 531.868C555.925 530.686 554.958 529.155 554.46 527.45C555.95 525.56 559.46 524.58 563.35 525.18C567.41 525.81 570.57 528 571.25 530.31Z" fill="#6788EC"/>
<path d="M414.4 180.68C422.855 180.68 429.71 173.826 429.71 165.37C429.71 156.915 422.855 150.06 414.4 150.06C405.944 150.06 399.09 156.915 399.09 165.37C399.09 173.826 405.944 180.68 414.4 180.68Z" fill="#A07DF0"/>
<path d="M411.37 173.97V156.78L421.44 165.37L411.37 173.97Z" fill="white"/>
<path d="M287.15 244.2H265.63C262.973 244.2 260.82 246.354 260.82 249.01V266.44C260.82 269.097 262.973 271.25 265.63 271.25H287.15C289.806 271.25 291.96 269.097 291.96 266.44V249.01C291.96 246.354 289.806 244.2 287.15 244.2Z" fill="#6788EC"/>
<path d="M234.4 196.23V215.35C234.404 215.888 234.313 216.423 234.13 216.93C233.8 217.871 233.187 218.686 232.373 219.263C231.56 219.84 230.587 220.15 229.59 220.15H209.41C208.779 220.151 208.154 220.028 207.57 219.787C206.987 219.547 206.456 219.193 206.01 218.748C205.563 218.302 205.208 217.772 204.966 217.189C204.725 216.606 204.6 215.981 204.6 215.35V196.23C204.6 194.954 205.107 193.731 206.009 192.829C206.911 191.927 208.134 191.42 209.41 191.42H229.59C230.866 191.42 232.089 191.927 232.991 192.829C233.893 193.731 234.4 194.954 234.4 196.23Z" fill="#6788EC"/>
<path d="M264.86 150C264.295 149.829 263.698 149.794 263.118 149.899C262.537 150.003 261.99 150.244 261.52 150.601C261.051 150.959 260.673 151.422 260.417 151.954C260.162 152.485 260.036 153.07 260.05 153.66C260.064 153.07 259.938 152.485 259.683 151.954C259.427 151.422 259.049 150.959 258.58 150.601C258.11 150.244 257.563 150.003 256.982 149.899C256.402 149.794 255.805 149.829 255.24 150C254.58 150.252 253.98 150.642 253.481 151.143C252.982 151.644 252.596 152.245 252.346 152.906C252.097 153.568 251.99 154.275 252.034 154.98C252.078 155.686 252.271 156.374 252.6 157C254.17 160.33 257.46 160.46 260.05 163.29C262.64 160.46 265.93 160.29 267.5 157C267.829 156.374 268.022 155.686 268.066 154.98C268.11 154.275 268.004 153.568 267.754 152.906C267.505 152.245 267.118 151.644 266.619 151.143C266.12 150.642 265.521 150.252 264.86 150Z" fill="white"/>
<path d="M234.13 216.93C233.8 217.871 233.187 218.686 232.373 219.263C231.56 219.84 230.587 220.15 229.59 220.15H209.41C208.779 220.151 208.154 220.028 207.57 219.787C206.987 219.547 206.456 219.193 206.01 218.748C205.563 218.302 205.208 217.772 204.966 217.189C204.725 216.606 204.6 215.981 204.6 215.35V214.25L214 200.42L222.3 214.2L227.08 205.79L234.13 216.93Z" fill="#B7D1FF"/>
<path d="M222.92 202.68C224.549 202.68 225.87 201.359 225.87 199.73C225.87 198.101 224.549 196.78 222.92 196.78C221.291 196.78 219.97 198.101 219.97 199.73C219.97 201.359 221.291 202.68 222.92 202.68Z" fill="white"/>
<path d="M289.73 480.91L277.64 498L268.84 510.48L264.15 517.12L211.67 480.32L186.67 462.8C186.843 462.42 187.037 462.049 187.25 461.69C188.445 459.627 189.976 457.778 191.78 456.22C195.29 453.22 200.78 450.35 209.03 451C224.33 452.21 226.69 456.3 242.83 456.77C252.69 457.06 255.52 461.69 255.83 464.24C256.15 467.02 254.29 472.11 254.29 472.11C254.82 472.45 272.47 482.46 289.73 480.91Z" fill="white"/>
<path d="M277.64 498L268.84 510.48L264.15 517.12L252.82 509.18L211.67 480.32C213.04 478.09 214.49 475.67 214.49 475.67C225.13 476.59 242.25 478.12 252.1 479.26C253.66 479.45 255.1 479.62 256.19 479.78C264.46 481 275 487.74 277.64 498Z" fill="#B7D1FF"/>
<path d="M233.64 477.42C226.78 476.79 219.82 476.17 214.49 475.71C214.49 475.71 213.04 478.13 211.67 480.36L235.67 497.2C233.49 491.11 233.08 483.49 233.64 477.42Z" fill="#6788EC"/>
<path d="M252.1 479.3C250.19 479.08 248.02 478.84 245.67 478.6C245.04 485.21 245.67 494.22 248.85 499.91L245.36 501.91C241.72 495.4 240.99 485.63 241.71 478.25L237.61 477.84C237.01 484.43 237.61 493.3 240.8 498.92L239.29 499.77L252.82 509.26L254.82 506.26C251.233 497.749 250.285 488.356 252.1 479.3Z" fill="#6788EC"/>
<path d="M254.3 472.15C247.23 468.83 209.93 453.33 200 470.15L187.28 461.71C188.475 459.647 190.006 457.798 191.81 456.24C195.32 453.24 200.81 450.37 209.06 451.02C224.36 452.23 226.72 456.32 242.86 456.79C252.72 457.08 255.55 461.71 255.86 464.26C256.16 467.06 254.3 472.15 254.3 472.15Z" fill="#B7D1FF"/>
<path d="M247.42 471.58C247.353 471.581 247.287 471.567 247.225 471.542C247.163 471.516 247.107 471.478 247.06 471.43L230.35 454.14C230.304 454.093 230.268 454.037 230.244 453.976C230.219 453.914 230.207 453.849 230.208 453.783C230.209 453.717 230.223 453.652 230.249 453.592C230.275 453.531 230.313 453.476 230.36 453.43C230.407 453.384 230.463 453.348 230.525 453.324C230.586 453.299 230.651 453.287 230.717 453.288C230.783 453.289 230.848 453.303 230.909 453.329C230.969 453.355 231.024 453.393 231.07 453.44L247.78 470.73C247.849 470.801 247.896 470.89 247.914 470.987C247.933 471.084 247.922 471.184 247.883 471.275C247.845 471.366 247.78 471.444 247.698 471.498C247.615 471.552 247.519 471.581 247.42 471.58Z" fill="#0B0E20"/>
<path d="M232.52 468.92C232.39 468.921 232.264 468.87 232.17 468.78L213.1 449.88C213.018 449.785 212.974 449.662 212.978 449.536C212.982 449.41 213.033 449.29 213.121 449.201C213.21 449.111 213.329 449.058 213.455 449.052C213.581 449.047 213.704 449.089 213.8 449.17L232.38 467.58L238.81 454.72C238.837 454.656 238.876 454.599 238.925 454.551C238.975 454.504 239.034 454.467 239.098 454.443C239.163 454.419 239.232 454.409 239.3 454.413C239.369 454.417 239.436 454.435 239.497 454.466C239.559 454.497 239.613 454.54 239.657 454.593C239.701 454.646 239.733 454.708 239.752 454.774C239.771 454.84 239.776 454.909 239.768 454.977C239.759 455.045 239.736 455.111 239.7 455.17L233 468.64C232.964 468.711 232.912 468.773 232.848 468.82C232.784 468.867 232.709 468.898 232.63 468.91L232.52 468.92Z" fill="#0B0E20"/>
<path d="M220.55 465.89C220.494 465.9 220.436 465.9 220.38 465.89C220.318 465.868 220.26 465.835 220.21 465.791C220.161 465.747 220.12 465.694 220.092 465.635C220.063 465.575 220.046 465.51 220.042 465.444C220.039 465.378 220.048 465.312 220.07 465.25L224.79 451.83C224.842 451.716 224.934 451.625 225.049 451.576C225.164 451.527 225.293 451.522 225.411 451.564C225.529 451.605 225.628 451.69 225.687 451.8C225.746 451.91 225.761 452.039 225.73 452.16L221 465.55C220.968 465.645 220.908 465.729 220.828 465.789C220.747 465.85 220.651 465.885 220.55 465.89Z" fill="#0B0E20"/>
<path d="M268.84 510.52L264.15 517.16L186.7 462.84C187.933 460.318 189.673 458.078 191.81 456.26C206.92 466.87 246.48 494.68 268.84 510.52Z" fill="#0B0E20"/>
<path d="M348.76 169.3C348.552 169.299 348.349 169.234 348.18 169.112C348.011 168.991 347.884 168.819 347.816 168.622C347.749 168.425 347.745 168.212 347.805 168.013C347.865 167.813 347.985 167.637 348.15 167.51L356.38 161.2L348.15 154.89C347.939 154.728 347.801 154.489 347.766 154.226C347.732 153.962 347.803 153.696 347.965 153.485C348.127 153.274 348.366 153.136 348.629 153.101C348.893 153.067 349.159 153.138 349.37 153.3L358.64 160.4C358.762 160.493 358.861 160.613 358.93 160.751C358.998 160.889 359.033 161.041 359.033 161.195C359.033 161.349 358.998 161.5 358.93 161.638C358.861 161.776 358.762 161.897 358.64 161.99L349.37 169.09C349.195 169.225 348.981 169.299 348.76 169.3Z" fill="white"/>
<path d="M332.94 169.3C332.719 169.299 332.504 169.225 332.33 169.09L323.06 161.99C322.938 161.897 322.838 161.776 322.77 161.638C322.702 161.5 322.667 161.349 322.667 161.195C322.667 161.041 322.702 160.889 322.77 160.751C322.838 160.613 322.938 160.493 323.06 160.4L332.33 153.3C332.434 153.22 332.553 153.161 332.681 153.127C332.808 153.093 332.94 153.084 333.071 153.101C333.201 153.119 333.327 153.161 333.441 153.227C333.555 153.293 333.655 153.38 333.735 153.485C333.815 153.589 333.874 153.708 333.908 153.835C333.942 153.963 333.951 154.095 333.933 154.226C333.916 154.356 333.874 154.482 333.808 154.596C333.742 154.71 333.654 154.81 333.55 154.89L325.32 161.2L333.55 167.51C333.714 167.637 333.835 167.813 333.895 168.013C333.954 168.212 333.951 168.425 333.883 168.622C333.816 168.819 333.689 168.991 333.52 169.112C333.351 169.234 333.148 169.299 332.94 169.3Z" fill="white"/>
<path d="M337.58 169.31C337.412 169.31 337.246 169.268 337.099 169.188C336.951 169.107 336.826 168.991 336.736 168.849C336.645 168.708 336.591 168.546 336.58 168.378C336.569 168.21 336.6 168.042 336.67 167.89L343.22 153.68C343.275 153.56 343.353 153.453 343.45 153.364C343.547 153.274 343.66 153.205 343.784 153.159C343.907 153.114 344.038 153.093 344.17 153.098C344.301 153.104 344.431 153.135 344.55 153.19C344.67 153.245 344.777 153.323 344.866 153.42C344.956 153.517 345.025 153.63 345.071 153.753C345.116 153.877 345.137 154.008 345.132 154.14C345.126 154.271 345.095 154.4 345.04 154.52L338.49 168.73C338.41 168.903 338.281 169.05 338.12 169.153C337.959 169.256 337.771 169.31 337.58 169.31Z" fill="white"/>
<path d="M281.51 253.97C282.532 253.97 283.36 253.142 283.36 252.12C283.36 251.098 282.532 250.27 281.51 250.27C280.488 250.27 279.66 251.098 279.66 252.12C279.66 253.142 280.488 253.97 281.51 253.97Z" fill="white"/>
<path d="M281.51 265.18C282.532 265.18 283.36 264.352 283.36 263.33C283.36 262.308 282.532 261.48 281.51 261.48C280.488 261.48 279.66 262.308 279.66 263.33C279.66 264.352 280.488 265.18 281.51 265.18Z" fill="white"/>
<path d="M271.26 259.58C272.282 259.58 273.11 258.752 273.11 257.73C273.11 256.708 272.282 255.88 271.26 255.88C270.238 255.88 269.41 256.708 269.41 257.73C269.41 258.752 270.238 259.58 271.26 259.58Z" fill="white"/>
<path d="M281.33 263.66L270.48 257.73L281.33 251.79L281.69 252.45L272.05 257.73L281.69 263L281.33 263.66Z" fill="white"/>
</svg>
