<svg width="800" height="600" viewBox="0 0 800 600" fill="none" xmlns="http://www.w3.org/2000/svg">
<path d="M642.41 134.69C659.382 134.69 673.14 120.932 673.14 103.96C673.14 86.9888 659.382 73.2305 642.41 73.2305C625.438 73.2305 611.68 86.9888 611.68 103.96C611.68 120.932 625.438 134.69 642.41 134.69Z" fill="#6788EC"/>
<path d="M647.42 343.52C659.228 343.52 668.8 333.948 668.8 322.14C668.8 310.332 659.228 300.76 647.42 300.76C635.612 300.76 626.04 310.332 626.04 322.14C626.04 333.948 635.612 343.52 647.42 343.52Z" fill="#A07DF0"/>
<path d="M569.6 125.24H241.51V526.78H569.6V125.24Z" fill="#DDCCFB"/>
<path d="M545.95 170.35H265.17V456.64H545.95V170.35Z" fill="#C5B5F9"/>
<path d="M343.19 362.65L355.45 337.35H320.63L336.18 300.76H299.08L283.53 337.35H257.69L273.24 300.76H236.14L220.59 337.35H195.27L183 362.65H209.83L198.83 388.55H174.27L162 413.85H188.07L169.88 456.64H207L225.19 413.85H251L232.81 456.64H269.91L288.1 413.85H322.17L334.43 388.55H298.87L309.87 362.65H343.19ZM261.78 388.55H235.93L246.93 362.65H272.77L261.78 388.55Z" fill="#0B0E20"/>
<path d="M197.49 457.14C197.424 457.153 197.356 457.153 197.29 457.14C197.229 457.114 197.175 457.076 197.129 457.028C197.083 456.981 197.047 456.925 197.023 456.864C196.998 456.802 196.987 456.737 196.988 456.671C196.989 456.605 197.003 456.54 197.03 456.48L215.22 413.69C215.259 413.6 215.323 413.524 215.405 413.471C215.487 413.418 215.582 413.389 215.68 413.39H251C251.132 413.39 251.26 413.442 251.353 413.536C251.447 413.63 251.5 413.757 251.5 413.89C251.5 414.022 251.447 414.149 251.353 414.243C251.26 414.337 251.132 414.39 251 414.39H216L197.94 456.88C197.896 456.96 197.831 457.027 197.751 457.073C197.672 457.119 197.582 457.142 197.49 457.14ZM260.43 457.14C260.364 457.153 260.296 457.153 260.23 457.14C260.169 457.114 260.115 457.076 260.069 457.028C260.023 456.981 259.987 456.925 259.963 456.864C259.938 456.802 259.927 456.737 259.928 456.671C259.929 456.605 259.943 456.54 259.97 456.48L278.16 413.69C278.199 413.6 278.263 413.524 278.345 413.471C278.427 413.418 278.522 413.389 278.62 413.39H311.79L323.57 389.09H289.37C289.287 389.09 289.205 389.069 289.132 389.03C289.058 388.991 288.996 388.934 288.95 388.864C288.905 388.795 288.877 388.715 288.87 388.632C288.863 388.549 288.877 388.466 288.91 388.39L299.91 362.49C299.949 362.4 300.013 362.324 300.095 362.271C300.177 362.218 300.272 362.189 300.37 362.19H332.78L344.56 337.89H311.13C311.047 337.89 310.965 337.869 310.892 337.83C310.818 337.791 310.756 337.734 310.71 337.664C310.665 337.595 310.637 337.515 310.63 337.432C310.623 337.349 310.637 337.266 310.67 337.19L326.22 300.6C326.275 300.483 326.373 300.392 326.494 300.345C326.615 300.299 326.748 300.302 326.867 300.352C326.986 300.403 327.081 300.497 327.132 300.616C327.183 300.735 327.186 300.869 327.14 300.99L311.88 336.89H345.36C345.445 336.889 345.528 336.911 345.603 336.952C345.677 336.993 345.74 337.053 345.785 337.125C345.83 337.197 345.856 337.279 345.86 337.364C345.865 337.449 345.847 337.533 345.81 337.61L333.55 362.91C333.509 362.994 333.445 363.065 333.365 363.114C333.285 363.164 333.194 363.19 333.1 363.19H300.71L290.13 388.09H324.37C324.455 388.089 324.538 388.111 324.613 388.152C324.687 388.193 324.75 388.253 324.795 388.325C324.84 388.397 324.866 388.479 324.87 388.564C324.875 388.649 324.857 388.733 324.82 388.81L312.56 414.11C312.519 414.194 312.455 414.265 312.375 414.314C312.295 414.364 312.204 414.39 312.11 414.39H278.95L260.89 456.88C260.845 456.962 260.778 457.029 260.697 457.075C260.616 457.121 260.523 457.144 260.43 457.14ZM261.77 389.05H226.43C226.347 389.05 226.265 389.029 226.192 388.99C226.118 388.951 226.056 388.894 226.01 388.824C225.965 388.755 225.937 388.675 225.93 388.592C225.923 388.509 225.937 388.426 225.97 388.35L236.97 362.45C237.009 362.36 237.073 362.284 237.155 362.231C237.237 362.178 237.332 362.149 237.43 362.15H272.77C272.902 362.15 273.03 362.202 273.123 362.296C273.217 362.39 273.27 362.517 273.27 362.65C273.27 362.782 273.217 362.909 273.123 363.003C273.03 363.097 272.902 363.15 272.77 363.15H237.77L227.19 388.05H261.77C261.902 388.05 262.03 388.102 262.123 388.196C262.217 388.29 262.27 388.417 262.27 388.55C262.27 388.682 262.217 388.809 262.123 388.903C262.03 388.997 261.902 389.05 261.77 389.05ZM283.53 337.85H248.19C248.107 337.85 248.025 337.829 247.952 337.79C247.878 337.751 247.816 337.694 247.77 337.624C247.725 337.555 247.697 337.475 247.69 337.392C247.683 337.309 247.697 337.226 247.73 337.15L263.28 300.56C263.335 300.443 263.433 300.352 263.554 300.305C263.675 300.259 263.808 300.262 263.927 300.312C264.046 300.363 264.141 300.457 264.192 300.576C264.243 300.695 264.246 300.829 264.2 300.95L248.94 336.85H283.52C283.652 336.85 283.78 336.902 283.873 336.996C283.967 337.09 284.02 337.217 284.02 337.35C284.02 337.482 283.967 337.609 283.873 337.703C283.78 337.797 283.652 337.85 283.52 337.85H283.53Z" fill="white"/>
<path d="M527.1 412.07C516.58 409.07 504.49 399.7 496.98 393.2C492.55 389.38 489.71 386.54 489.71 386.54L513.31 339.66C513.31 339.66 510.57 304.37 509.79 298.25C509.01 292.13 505.63 274.81 504.06 269.25C502.49 263.69 514.22 259.09 524.9 257.79C535.58 256.49 542.23 269.1 542 280C541.92 283.91 543.17 291.82 544.29 301.13C547.05 323.95 553.37 360.05 553.87 380.75C554.6 410.45 543.82 416.92 527.1 412.07Z" fill="#F1A19E"/>
<path d="M514.38 368.41C509.399 373.802 504.992 379.697 501.23 386C499.79 388.33 498.38 390.74 496.98 393.2C492.55 389.38 489.71 386.54 489.71 386.54L513.31 339.66L513.73 351.07L514.38 368.41Z" fill="#0B0E20"/>
<path d="M426.82 295C442.94 277.7 441.97 245.13 437.62 229.27C432.72 211.38 412.49 210.91 408.93 217.6C396.46 217.93 392.16 232.83 385.87 256.55C379.58 280.27 365.35 285.55 352.33 292.19L426.82 295Z" fill="#0B0E20"/>
<path d="M525.7 456.64H412.45C416.8 448.93 422.74 437.64 424.45 430.64C425.73 425.52 426.38 422.74 425.88 419.64C425.555 417.911 425.011 416.231 424.26 414.64C422.97 411.64 420.91 407.87 417.88 402.1C408.76 384.72 380.64 336.47 380.64 336.47L362.29 342.18L311.2 278.84C327.13 280.57 361.51 286 387.49 290.13L388.17 290.24C399.26 292.01 402.56 289.97 403.51 285.24C405.71 274.24 404.73 251.71 404.73 251.71L428.35 256.92C428.35 256.92 427.23 285.1 428.35 289.72C429.35 294.01 436.86 294.96 445.68 295.14C452.58 295.29 460.31 294.98 466.44 295.42C478.5 296.29 481.29 301.26 490.44 312.66C494.44 317.66 500.17 324.33 505.28 330.14C507.96 333.2 510.49 336.05 512.53 338.31L513.32 339.64L513.74 351.05L499.67 382.05L501.24 386.05C502.77 389.9 505.37 396.46 508.84 405.32L510.76 410.25C512.9 415.72 515.31 421.91 517.95 428.75C521.81 438.71 524.57 448.33 525.7 456.64Z" fill="#A07DF0"/>
<mask id="mask0_24_35411" style="mask-type:luminance" maskUnits="userSpaceOnUse" x="311" y="251" width="215" height="206">
<path d="M525.7 456.64H412.45C416.8 448.93 422.74 437.64 424.45 430.64C425.73 425.52 426.38 422.74 425.88 419.64C425.555 417.911 425.011 416.231 424.26 414.64C422.97 411.64 420.91 407.87 417.88 402.1C408.76 384.72 380.64 336.47 380.64 336.47L362.29 342.18L311.2 278.84C327.13 280.57 361.51 286 387.49 290.13L388.17 290.24C399.26 292.01 402.56 289.97 403.51 285.24C405.71 274.24 404.73 251.71 404.73 251.71L428.35 256.92C428.35 256.92 427.23 285.1 428.35 289.72C429.35 294.01 436.86 294.96 445.68 295.14C452.58 295.29 460.31 294.98 466.44 295.42C478.5 296.29 481.29 301.26 490.44 312.66C494.44 317.66 500.17 324.33 505.28 330.14C507.96 333.2 510.49 336.05 512.53 338.31L513.32 339.64L513.74 351.05L499.67 382.05L501.24 386.05C502.77 389.9 505.37 396.46 508.84 405.32L510.76 410.25C512.9 415.72 515.31 421.91 517.95 428.75C521.81 438.71 524.57 448.33 525.7 456.64Z" fill="white"/>
</mask>
<g mask="url(#mask0_24_35411)">
<path d="M448.33 303.74C445.81 303.74 443.85 302.25 441.21 299.57C441.122 299.479 441.072 299.357 441.07 299.23L440.83 291.03C440.827 290.906 440.87 290.784 440.951 290.69C441.033 290.596 441.146 290.535 441.27 290.52L453.34 289C453.415 288.991 453.491 288.998 453.563 289.022C453.634 289.046 453.699 289.086 453.753 289.139C453.807 289.192 453.848 289.257 453.874 289.328C453.899 289.399 453.908 289.475 453.9 289.55C453.9 289.55 453.6 292.19 452.8 296.64C452.02 300.92 451.56 303.51 448.74 303.64L448.33 303.74ZM442.07 299C444.98 301.94 446.6 302.84 448.67 302.72C450.74 302.6 450.99 301.03 451.81 296.5C452.38 293.35 452.69 291.12 452.81 290.1L441.81 291.44L442.07 299Z" fill="white"/>
<path d="M513.44 352.46C508.15 352.46 507.49 350.68 506.96 347.97C506.91 347.7 506.85 347.41 506.79 347.12C506.13 344.19 506.03 343.74 500.84 342.25C494.95 340.56 495.32 335.74 496.14 331.36C496.89 327.36 500.14 322.49 511.14 322.42C511.256 322.421 511.368 322.459 511.46 322.53L524.15 333C524.232 333.067 524.291 333.158 524.318 333.26C524.345 333.363 524.339 333.471 524.3 333.57L516.88 352C516.845 352.085 516.788 352.159 516.714 352.214C516.64 352.269 516.552 352.302 516.46 352.31C515.31 352.41 514.31 352.46 513.44 352.46ZM511 323.46C502.89 323.55 498.09 326.35 497.12 331.58C496.15 336.81 496.5 340 501.12 341.32C506.49 342.86 507 343.52 507.77 346.93C507.84 347.23 507.9 347.52 507.95 347.8C508.46 350.39 508.77 351.96 516.08 351.36L523.24 333.53L511 323.46Z" fill="white"/>
<path d="M467.84 327.46C465.74 327.46 463.56 325.35 462.6 323.13C462 322.079 461.073 321.254 459.96 320.78C458.294 319.986 456.902 318.716 455.96 317.13C455.609 316.487 455.404 315.775 455.36 315.044C455.315 314.313 455.431 313.581 455.7 312.9C456.61 310.45 459.24 308.21 462.7 306.9C468.05 304.9 474.6 307.35 477.36 310.9C479.62 313.82 476.77 316.97 474.89 319.05C474.43 319.56 474 320.05 473.72 320.42C473.194 321.221 472.793 322.098 472.53 323.02C471.91 324.84 471.28 326.72 468.53 327.37C468.304 327.426 468.073 327.457 467.84 327.46ZM466.84 307.18C465.567 307.17 464.304 307.39 463.11 307.83C459.89 309.05 457.48 311.07 456.67 313.25C456.451 313.796 456.355 314.384 456.39 314.972C456.424 315.56 456.588 316.133 456.87 316.65C457.724 318.069 458.981 319.204 460.48 319.91C461.787 320.48 462.865 321.473 463.54 322.73C464.43 324.79 466.6 326.81 468.31 326.41C470.56 325.89 471.04 324.49 471.64 322.72C471.932 321.7 472.381 320.732 472.97 319.85C473.28 319.42 473.73 318.92 474.21 318.4C476.49 315.88 478.21 313.62 476.63 311.53C474.72 309.1 470.74 307.18 466.81 307.18H466.84Z" fill="white"/>
<path d="M413.27 323.84C411.27 323.84 409.37 323.29 408.45 321.63C408.255 321.279 408.134 320.893 408.094 320.494C408.055 320.095 408.098 319.692 408.22 319.31C409.15 316.08 414.55 313 415.63 312.41C418.27 310.97 418.5 310.78 419.85 307.41C419.899 307.289 419.993 307.192 420.113 307.14C420.233 307.087 420.368 307.084 420.49 307.13C421.4 307.46 429.4 310.48 429.4 313.88C429.4 316.56 428.75 319.88 427.29 321.26C427.082 321.475 426.831 321.644 426.554 321.755C426.277 321.867 425.979 321.92 425.68 321.91H425.19C423.082 321.648 420.941 321.898 418.95 322.64C417.15 323.397 415.222 323.804 413.27 323.84ZM420.59 308.26C419.28 311.47 418.79 311.84 416.11 313.26C413.86 314.49 409.87 317.2 409.18 319.56C409.095 319.814 409.064 320.083 409.088 320.35C409.112 320.616 409.191 320.875 409.32 321.11C410.86 323.88 416.32 322.67 418.54 321.69C420.673 320.874 422.973 320.593 425.24 320.87H425.72C425.883 320.868 426.044 320.834 426.194 320.769C426.343 320.703 426.478 320.609 426.59 320.49C427.65 319.49 428.39 316.74 428.39 313.83C428.4 312 423.79 309.5 420.6 308.26H420.59Z" fill="white"/>
<path d="M512.87 462.93C512.801 462.93 512.732 462.916 512.669 462.888C512.605 462.861 512.548 462.82 512.501 462.769C512.454 462.719 512.418 462.659 512.396 462.593C512.373 462.528 512.364 462.459 512.37 462.39C512.52 460.5 512.69 458.85 512.84 457.39C513.42 451.61 513.71 448.71 511.84 445.9C509.34 442.09 507.52 438.1 511.14 434.68C513.855 432.249 517.421 430.991 521.06 431.18C522.149 431.247 523.21 431.549 524.17 432.068C525.13 432.586 525.966 433.306 526.62 434.18C530.23 439.04 537.19 460.96 537.48 461.89C537.503 461.964 537.509 462.043 537.496 462.12C537.484 462.197 537.454 462.27 537.408 462.333C537.362 462.396 537.303 462.447 537.234 462.483C537.164 462.519 537.088 462.539 537.01 462.54L512.84 462.96L512.87 462.93ZM520.19 432.13C517.117 432.209 514.17 433.362 511.86 435.39C508.94 438.15 510.02 441.24 512.71 445.33C514.71 448.43 514.45 451.45 513.84 457.47C513.71 458.79 513.56 460.26 513.42 461.92L536.36 461.53C535.16 457.81 529.03 439.03 525.85 434.75C525.281 433.99 524.551 433.364 523.713 432.918C522.875 432.473 521.948 432.217 521 432.17C520.74 432.14 520.47 432.13 520.19 432.13Z" fill="white"/>
<path d="M486.89 436.17C486.778 436.17 486.67 436.134 486.582 436.066C486.493 435.997 486.431 435.902 486.403 435.794C486.375 435.686 486.385 435.571 486.429 435.469C486.474 435.367 486.552 435.283 486.65 435.23C492.84 431.83 498.89 426.29 498.44 421.57C497.95 416.39 492.82 412.94 492.76 412.91C492.663 412.832 492.599 412.72 492.58 412.597C492.56 412.474 492.588 412.348 492.657 412.244C492.726 412.14 492.831 412.066 492.952 412.036C493.072 412.005 493.2 412.021 493.31 412.08C493.54 412.23 498.89 415.83 499.43 421.48C499.97 427.13 493.13 432.81 487.13 436.11C487.056 436.15 486.974 436.17 486.89 436.17Z" fill="white"/>
<path d="M428.26 417.54C428.131 417.54 428.006 417.49 427.913 417.4C427.82 417.311 427.765 417.189 427.76 417.06C427.66 415.06 428.76 410.85 429.94 406.37C430.66 403.64 431.4 400.81 431.86 398.49C432.25 396.56 432.01 395.13 431.13 394.13C429.83 392.65 427.13 392.06 422.75 392.34C417.47 392.68 416.41 396.03 414.8 401.11L414.54 401.93C414.52 401.995 414.488 402.056 414.444 402.11C414.401 402.163 414.348 402.207 414.287 402.239C414.227 402.272 414.161 402.292 414.093 402.299C414.024 402.306 413.956 402.299 413.89 402.28C413.824 402.26 413.763 402.228 413.71 402.184C413.657 402.141 413.613 402.088 413.58 402.027C413.548 401.967 413.527 401.901 413.52 401.832C413.514 401.764 413.52 401.695 413.54 401.63L413.8 400.81C415.41 395.73 416.68 391.72 422.64 391.34C427.39 391.04 430.3 391.71 431.84 393.47C432.92 394.7 433.24 396.47 432.84 398.68C432.44 400.89 431.62 403.88 430.9 406.62C429.8 410.82 428.66 415.17 428.75 417C428.755 417.131 428.709 417.259 428.621 417.356C428.533 417.453 428.411 417.512 428.28 417.52L428.26 417.54Z" fill="white"/>
<path d="M441.86 454.93C438.041 454.832 434.377 453.395 431.51 450.87C430.832 450.275 430.323 449.511 430.035 448.656C429.747 447.8 429.69 446.884 429.87 446C430.33 444 432.34 441.14 439.25 438.92C440.248 438.52 441.056 437.755 441.51 436.78C442.025 435.741 442.869 434.901 443.91 434.39C444.516 434.148 445.17 434.046 445.821 434.093C446.472 434.14 447.104 434.334 447.67 434.66C448.67 435.23 449.91 436.49 450.24 439.19C450.77 443.52 450.95 451.19 446.24 453.88C444.896 454.605 443.387 454.967 441.86 454.93ZM445.51 435.07C445.092 435.068 444.677 435.15 444.29 435.31C443.445 435.75 442.764 436.452 442.35 437.31C441.779 438.492 440.777 439.412 439.55 439.88C434.55 441.5 431.42 443.76 430.84 446.23C430.696 446.947 430.746 447.689 430.985 448.38C431.224 449.071 431.644 449.686 432.2 450.16C435.02 452.88 441.7 455.34 445.76 453C450.1 450.51 449.63 442.59 449.23 439.3C448.95 437 447.94 435.97 447.15 435.51C446.652 435.219 446.087 435.064 445.51 435.06V435.07Z" fill="white"/>
<path d="M430.83 370.95H430.49C428.34 370.82 426.59 369.48 425.43 367.08C422.43 360.88 419.97 356.35 415.75 354.4C412.21 352.76 408.31 350.3 409.56 345.81C409.693 345.24 409.962 344.711 410.343 344.267C410.724 343.823 411.207 343.478 411.75 343.26C415.63 341.7 423.08 345.61 429.14 349.18C429.78 349.56 430.48 349.95 431.2 350.35C435.35 352.68 440.06 355.35 441 359.14C441.191 360.044 441.188 360.978 440.994 361.88C440.799 362.783 440.416 363.635 439.87 364.38C437.2 368.52 433.84 370.95 430.83 370.95ZM410.53 346.07C409.7 349.07 411.39 351.27 416.18 353.48C420.69 355.57 423.24 360.25 426.34 366.63C427.34 368.69 428.8 369.83 430.56 369.94C433.28 370.1 436.47 367.82 439.05 363.83C439.524 363.201 439.859 362.477 440.031 361.708C440.204 360.939 440.21 360.142 440.05 359.37C439.21 355.98 434.51 353.37 430.73 351.22C430.01 350.81 429.3 350.42 428.65 350.04C425.53 348.2 416.06 342.6 412.14 344.18C411.74 344.342 411.385 344.598 411.107 344.927C410.828 345.257 410.633 345.649 410.54 346.07H410.53Z" fill="white"/>
<path d="M381.24 309.09C379.44 309.09 377.24 307.99 375.17 306.91C373.23 305.91 371.23 304.91 369.78 304.91C365.4 304.91 363.27 303.71 360.31 299.56C357.56 295.7 354.99 293.78 348.69 289.97C342.14 285.97 341.36 282.74 340.87 277.83C340.863 277.764 340.869 277.698 340.888 277.635C340.907 277.571 340.938 277.512 340.98 277.461C341.022 277.41 341.074 277.368 341.132 277.337C341.19 277.306 341.254 277.286 341.32 277.28C341.386 277.273 341.452 277.279 341.515 277.298C341.579 277.317 341.638 277.349 341.689 277.39C341.74 277.432 341.782 277.484 341.813 277.542C341.844 277.6 341.864 277.664 341.87 277.73C342.33 282.31 342.93 285.31 349.21 289.11C355.65 293.01 358.27 294.98 361.13 298.98C363.99 302.98 365.76 303.91 369.79 303.91C371.49 303.91 373.5 304.91 375.64 306.03C378.05 307.26 380.53 308.53 382.12 307.96C382.443 307.828 382.733 307.628 382.973 307.375C383.213 307.121 383.396 306.82 383.51 306.49C385.32 302.28 373.66 288.93 361.51 283.38C361.389 283.324 361.296 283.223 361.25 283.098C361.204 282.974 361.209 282.836 361.265 282.715C361.321 282.594 361.422 282.501 361.547 282.455C361.671 282.409 361.809 282.414 361.93 282.47C374.03 288.01 386.63 301.7 384.39 306.88C384.217 307.336 383.949 307.75 383.604 308.094C383.26 308.439 382.846 308.707 382.39 308.88C382.021 309.013 381.632 309.084 381.24 309.09Z" fill="white"/>
<path d="M356.55 343.25C356.468 343.251 356.388 343.231 356.316 343.194C356.243 343.156 356.181 343.101 356.135 343.034C356.089 342.967 356.06 342.89 356.05 342.809C356.04 342.728 356.051 342.646 356.08 342.57C362.28 326.29 361.58 320.93 359.9 319.3C357.68 317.15 347.44 320.8 339.97 326.41C339.864 326.49 339.731 326.524 339.599 326.505C339.468 326.486 339.349 326.416 339.27 326.31C339.19 326.204 339.156 326.071 339.175 325.939C339.194 325.808 339.264 325.69 339.37 325.61C346.64 320.16 357.73 315.81 360.59 318.61C363.45 321.41 362.21 329.28 357 342.95C356.962 343.038 356.899 343.113 356.819 343.166C356.739 343.219 356.646 343.248 356.55 343.25Z" fill="white"/>
<path d="M476.83 399.2C476.737 399.2 476.646 399.174 476.567 399.126C476.488 399.077 476.424 399.007 476.383 398.924C476.341 398.841 476.324 398.748 476.332 398.655C476.34 398.563 476.374 398.475 476.43 398.4C477.48 396.834 478.002 394.974 477.92 393.09C477.86 390.17 478.13 388.68 479.92 386.97C480.179 386.714 480.365 386.394 480.46 386.043C480.555 385.692 480.555 385.322 480.46 384.97C480.275 384.296 479.926 383.677 479.445 383.169C478.963 382.662 478.364 382.281 477.7 382.06C475.85 381.34 472.45 381.39 467.58 382.21C467.447 382.233 467.311 382.202 467.202 382.124C467.092 382.046 467.018 381.928 466.995 381.795C466.972 381.663 467.003 381.527 467.081 381.417C467.159 381.307 467.277 381.233 467.41 381.21C472.54 380.35 476.02 380.32 478.06 381.12C478.883 381.395 479.624 381.873 480.215 382.509C480.805 383.145 481.227 383.919 481.44 384.76C481.559 385.271 481.546 385.804 481.4 386.308C481.255 386.813 480.983 387.271 480.61 387.64C479.19 388.99 478.86 390.05 478.92 393.02C479.015 395.128 478.422 397.209 477.23 398.95C477.189 399.022 477.131 399.082 477.061 399.125C476.992 399.169 476.912 399.195 476.83 399.2Z" fill="white"/>
<path d="M471.89 405.41C471.012 405.405 470.145 405.214 469.347 404.848C468.548 404.483 467.837 403.951 467.26 403.29C465.93 401.84 465.14 401.39 460.67 401.47C458.15 401.52 456.67 401.14 456.01 400.23C455.35 399.32 455.57 397.88 455.91 396.79C456.91 393.56 459.59 391.4 463.71 390.56C466.29 390.031 468.822 389.288 471.28 388.34C471.401 388.303 471.531 388.314 471.644 388.369C471.758 388.424 471.846 388.52 471.892 388.638C471.937 388.756 471.936 388.886 471.89 389.003C471.843 389.121 471.754 389.216 471.64 389.27C469.13 390.236 466.545 390.992 463.91 391.53C461.3 392.07 457.97 393.46 456.91 397.08C456.51 398.37 456.5 399.16 456.85 399.63C457.2 400.1 458.57 400.52 460.69 400.47C465.27 400.38 466.44 400.87 468.04 402.61C468.746 403.422 469.686 403.997 470.731 404.257C471.776 404.516 472.875 404.448 473.88 404.06C475.4 403.52 477.77 403.81 479.49 404.15C479.622 404.175 479.74 404.252 479.816 404.364C479.892 404.475 479.92 404.612 479.895 404.745C479.87 404.878 479.793 404.995 479.681 405.071C479.57 405.147 479.432 405.175 479.3 405.15C477.637 404.704 475.893 404.659 474.21 405.02C473.465 405.283 472.68 405.415 471.89 405.41Z" fill="white"/>
<path d="M492.57 380.07C490.3 380.07 488.72 379.61 487.88 378.07C487.446 377.198 487.085 376.291 486.8 375.36C486.07 373.19 485.38 371.13 482.63 370C480.63 369.19 478.81 368.23 478.48 366.71C478.23 365.59 478.8 364.35 480.32 362.71C483.5 359.23 488.38 360.89 491.02 362.19C491.109 362.229 491.186 362.293 491.239 362.375C491.292 362.457 491.32 362.552 491.32 362.65C491.316 362.734 491.291 362.816 491.248 362.889C491.205 362.962 491.145 363.023 491.074 363.067C491.002 363.111 490.92 363.137 490.836 363.143C490.752 363.149 490.667 363.134 490.59 363.1C488.2 361.92 483.79 360.39 481.05 363.39C479.81 364.75 479.29 365.77 479.45 366.52C479.61 367.27 480.7 368.14 483.01 369.1C486.18 370.41 487.01 372.78 487.75 375.1C488.013 375.979 488.348 376.835 488.75 377.66C489.75 379.58 492.75 379.28 497.18 378.83L498.28 378.72C498.346 378.713 498.412 378.72 498.475 378.739C498.538 378.758 498.597 378.789 498.648 378.831C498.699 378.873 498.742 378.924 498.773 378.982C498.804 379.04 498.823 379.104 498.83 379.17C498.837 379.235 498.83 379.302 498.811 379.365C498.792 379.428 498.761 379.487 498.719 379.538C498.677 379.589 498.626 379.631 498.568 379.663C498.509 379.694 498.446 379.713 498.38 379.72L497.28 379.83C495.49 379.91 493.91 380.07 492.57 380.07Z" fill="white"/>
</g>
<path d="M510.75 410.2L483.67 418.66L425.92 419.73C425.595 418.001 425.051 416.321 424.3 414.73C442.3 415.19 482.63 414.64 482.63 414.64L508.83 405.32L510.75 410.2Z" fill="white"/>
<path d="M480 420.3C478.76 424.74 476.63 448.03 475.41 456.64H465.11C467.78 448.07 476.43 415.88 479.29 414.46C480.63 415.15 481.06 416.66 480 420.3Z" fill="white"/>
<path d="M484.61 413.53C487.08 413.76 493.28 420.23 499.86 429.79C503.472 434.878 506.583 440.303 509.15 445.99L501.82 452.44C501.82 452.44 493.2 427.6 484.93 417.83L484.61 413.53Z" fill="white"/>
<path d="M384.4 405.22C376.25 413.52 361.68 419.43 351.45 422.93C345.91 424.83 344.25 420.72 350.45 414.62C355.82 409.32 357.19 406.18 357.1 402.56C356.97 397.5 354.27 388.56 341.38 375.05C328.75 361.82 299.38 325.57 290.02 311.12C282.75 300 287.65 287.63 302.2 284C306.246 283.026 310.42 282.689 314.57 283C314.57 283 328.87 298.42 346.83 320.58C348.59 322.74 350.38 324.97 352.19 327.25C364.5 342.75 367 345.8 379.26 364C389.08 378.7 388.33 401.2 384.4 405.22Z" fill="#F1A19E"/>
<path d="M445.72 295.16L435.4 320.62L387.53 290.17L388.21 290.28C399.3 292.05 402.6 290.01 403.55 285.28C404.73 279.35 405 270.09 404.99 262.8C404.99 256.55 404.77 251.8 404.77 251.8L428.39 257.01C428.39 257.01 427.87 270.21 427.89 280.01C427.794 283.281 427.962 286.555 428.39 289.8C429.43 294 436.9 295 445.72 295.16Z" fill="#F1A19E"/>
<path d="M427.89 280C418.49 277.26 410.84 270.81 404.99 262.83C404.99 256.58 404.77 251.83 404.77 251.83L428.39 257.04C428.39 257.04 427.87 270.14 427.89 280Z" fill="#0B0E20"/>
<path d="M403.34 247C406.66 241.36 406.9 238.87 410.49 230.34C414.57 220.66 420.72 224.74 420.72 224.74C427.17 220.85 434.26 225.05 437.02 241.55C439.78 258.05 434.35 266.39 427.02 267.83C419.69 269.27 411.12 265.04 407.08 257.63C407.08 257.63 401.22 260.3 398.14 255.07C395.06 249.84 400.08 245.19 403.34 247Z" fill="#F1A19E"/>
<path d="M602.513 206.615C607.188 205.954 610.442 201.628 609.781 196.953C609.119 192.278 604.794 189.025 600.119 189.686C595.444 190.347 592.19 194.672 592.852 199.347C593.513 204.022 597.838 207.276 602.513 206.615Z" fill="#B7D1FF"/>
<path d="M524.579 286.666C525.845 290.789 530.214 293.106 534.337 291.839C538.46 290.573 540.777 286.204 539.51 282.081L521.358 222.965C520.092 218.842 515.723 216.526 511.599 217.792C507.476 219.058 505.16 223.427 506.426 227.55L524.579 286.666Z" fill="white"/>
<path d="M531 246.35C534.51 245.03 537.51 248.35 540.39 257.66C543.27 266.97 546.13 275.79 543.28 279.13C540.28 282.64 536.82 284.56 534.06 280.13C531.53 276.13 526.45 264.13 525.78 259.62C524.94 254.37 527.53 247.63 531 246.35Z" fill="#F1A19E"/>
<path d="M490.219 236.477L498.23 234.018L495.239 224.276L487.228 226.736L490.219 236.477Z" fill="white"/>
<path d="M492.72 227.38L494.77 234.38C495.5 236.869 496.717 239.188 498.35 241.203C499.983 243.218 502 244.89 504.283 246.12C506.566 247.351 509.071 248.116 511.652 248.372C514.233 248.627 516.84 248.369 519.32 247.61L536 242.5L612.33 240.74L587.2 155.74L522.35 198.57L506.35 202.98C503.842 203.669 501.496 204.851 499.449 206.455C497.402 208.06 495.694 210.055 494.426 212.326C493.157 214.597 492.353 217.097 492.06 219.682C491.767 222.266 491.992 224.883 492.72 227.38Z" fill="#B7D1FF"/>
<path d="M492.72 227.38L494.77 234.38C495.5 236.869 496.717 239.188 498.35 241.203C499.983 243.218 502 244.889 504.283 246.12C506.566 247.35 509.071 248.116 511.652 248.371C514.233 248.627 516.84 248.368 519.32 247.61L536 242.5L522.35 198.5L506.35 202.91C503.834 203.599 501.481 204.782 499.428 206.391C497.375 208.001 495.664 210.003 494.395 212.282C493.126 214.561 492.324 217.07 492.036 219.662C491.748 222.255 491.981 224.878 492.72 227.38Z" fill="#6788EC"/>
<path d="M616.831 243.021L614.278 243.805C612.828 244.251 611.26 244.102 609.92 243.391C608.58 242.68 607.576 241.466 607.131 240.016L582.732 160.558C582.287 159.108 582.436 157.54 583.146 156.2C583.857 154.859 585.071 153.856 586.521 153.411L589.073 152.627L616.831 243.021Z" fill="#6788EC"/>
<path d="M280.48 479.21C278.59 473.53 270.03 474.4 270.39 481.47C270.71 487.89 280.48 494.4 280.48 494.4C280.48 494.4 290.25 487.89 290.58 481.47C290.93 474.41 282.37 473.54 280.48 479.21Z" fill="#A07DF0"/>
<path d="M317.65 490.49C317.631 490.404 317.634 490.315 317.659 490.232C317.683 490.148 317.728 490.071 317.79 490.01C319.278 488.54 320.124 486.541 320.14 484.45C320.14 479.79 315.92 476.02 310.71 476.02C305.5 476.02 301.28 479.79 301.28 484.45C301.28 489.11 305.5 492.88 310.71 492.88C311.938 492.882 313.158 492.665 314.31 492.24C314.377 492.208 314.451 492.192 314.525 492.192C314.599 492.192 314.673 492.208 314.74 492.24L317.52 493.78C317.609 493.828 317.711 493.85 317.812 493.842C317.913 493.834 318.01 493.798 318.091 493.737C318.172 493.676 318.234 493.593 318.27 493.497C318.305 493.402 318.312 493.299 318.29 493.2L317.65 490.49Z" fill="white"/>
<path d="M346.81 479.08L340.09 492.08C340.01 492.23 339.887 492.353 339.737 492.433C339.587 492.513 339.416 492.545 339.247 492.527C339.078 492.509 338.919 492.44 338.789 492.33C338.659 492.22 338.565 492.074 338.52 491.91L336.52 484.24C336.498 484.168 336.471 484.098 336.44 484.03C336.406 483.981 336.369 483.935 336.33 483.89L331.71 478.78C331.598 478.656 331.525 478.502 331.5 478.337C331.475 478.172 331.499 478.003 331.569 477.851C331.64 477.7 331.753 477.572 331.896 477.485C332.038 477.397 332.203 477.354 332.37 477.36L346.11 477.84C346.253 477.847 346.391 477.889 346.513 477.963C346.636 478.037 346.738 478.14 346.81 478.263C346.882 478.386 346.923 478.525 346.928 478.667C346.934 478.81 346.903 478.952 346.84 479.08H346.81Z" fill="white"/>
<path d="M346.81 479.08L340.09 492.08C340.01 492.231 339.887 492.354 339.737 492.433C339.587 492.513 339.416 492.546 339.247 492.528C339.078 492.509 338.919 492.441 338.789 492.331C338.659 492.221 338.566 492.074 338.52 491.91L336.52 484.24C336.498 484.169 336.471 484.099 336.44 484.03L346.79 478.23C346.87 478.357 346.914 478.503 346.917 478.653C346.921 478.802 346.884 478.95 346.81 479.08Z" fill="white"/>
<path d="M539 494.52L534.2 489.41C534.106 489.306 533.991 489.222 533.863 489.164C533.735 489.107 533.596 489.077 533.455 489.077C533.314 489.077 533.175 489.107 533.047 489.164C532.919 489.222 532.804 489.306 532.71 489.41L527.91 494.52C527.774 494.679 527.593 494.792 527.39 494.842C527.187 494.893 526.973 494.878 526.779 494.801C526.585 494.724 526.42 494.588 526.307 494.412C526.194 494.236 526.139 494.029 526.15 493.82V476.07C526.15 475.805 526.255 475.551 526.443 475.363C526.63 475.176 526.885 475.07 527.15 475.07H539.72C539.985 475.07 540.24 475.176 540.427 475.363C540.615 475.551 540.72 475.805 540.72 476.07V493.82C540.721 494.02 540.662 494.216 540.551 494.382C540.44 494.548 540.282 494.677 540.097 494.753C539.912 494.828 539.708 494.846 539.513 494.805C539.317 494.763 539.139 494.664 539 494.52Z" fill="#A07DF0"/>
<path d="M655.68 330C655.202 329.998 654.735 330.141 654.34 330.41L644.61 324.07C644.828 323.554 644.935 322.998 644.925 322.439C644.915 321.879 644.787 321.327 644.55 320.82L654.42 313.89C654.91 314.18 655.487 314.286 656.048 314.19C656.609 314.094 657.118 313.802 657.483 313.365C657.848 312.929 658.047 312.377 658.043 311.807C658.038 311.238 657.832 310.689 657.46 310.258C657.089 309.827 656.576 309.542 656.013 309.454C655.451 309.366 654.876 309.481 654.39 309.778C653.905 310.075 653.54 310.535 653.363 311.076C653.185 311.616 653.205 312.203 653.42 312.73L643.65 319.58C643.07 319.012 642.335 318.629 641.537 318.48C640.739 318.331 639.915 318.423 639.17 318.744C638.425 319.065 637.791 319.6 637.351 320.282C636.911 320.963 636.683 321.761 636.697 322.572C636.712 323.383 636.967 324.172 637.431 324.838C637.894 325.504 638.546 326.017 639.302 326.312C640.058 326.606 640.885 326.669 641.677 326.493C642.469 326.316 643.191 325.908 643.75 325.32L653.39 331.6C653.227 332.077 653.219 332.595 653.369 333.076C653.519 333.558 653.818 333.98 654.223 334.281C654.629 334.582 655.119 334.746 655.624 334.75C656.128 334.754 656.621 334.597 657.031 334.303C657.441 334.008 657.746 333.591 657.904 333.111C658.061 332.632 658.061 332.115 657.905 331.635C657.75 331.155 657.445 330.737 657.036 330.441C656.627 330.145 656.135 329.987 655.63 329.99L655.68 330Z" fill="white"/>
<path d="M288.06 146.47C288.05 149.027 287.284 151.524 285.857 153.646C284.43 155.768 282.407 157.42 280.043 158.394C277.679 159.368 275.079 159.62 272.571 159.119C270.064 158.617 267.761 157.385 265.953 155.577C264.145 153.769 262.913 151.466 262.411 148.959C261.91 146.451 262.162 143.852 263.136 141.487C264.11 139.123 265.762 137.1 267.884 135.673C270.006 134.247 272.503 133.48 275.06 133.47C276.77 133.459 278.465 133.788 280.047 134.438C281.63 135.087 283.067 136.045 284.276 137.254C285.485 138.463 286.443 139.901 287.092 141.483C287.742 143.065 288.071 144.76 288.06 146.47Z" fill="white"/>
<path d="M275.11 147.45C277.59 147.45 279.6 145.439 279.6 142.96C279.6 140.48 277.59 138.47 275.11 138.47C272.63 138.47 270.62 140.48 270.62 142.96C270.62 145.439 272.63 147.45 275.11 147.45Z" fill="#A07DF0"/>
<path d="M275.11 149.62C273.116 149.627 271.197 150.379 269.728 151.727C268.259 153.076 267.347 154.924 267.17 156.91C269.441 158.673 272.235 159.63 275.11 159.63C277.985 159.63 280.779 158.673 283.05 156.91C282.873 154.924 281.961 153.076 280.492 151.727C279.023 150.379 277.104 149.627 275.11 149.62Z" fill="#A07DF0"/>
<path d="M436.69 144.21H305.19C303.942 144.21 302.93 145.222 302.93 146.47C302.93 147.718 303.942 148.73 305.19 148.73H436.69C437.938 148.73 438.95 147.718 438.95 146.47C438.95 145.222 437.938 144.21 436.69 144.21Z" fill="white"/>
<path d="M546.98 141.32C548.068 141.32 548.95 140.438 548.95 139.35C548.95 138.262 548.068 137.38 546.98 137.38C545.892 137.38 545.01 138.262 545.01 139.35C545.01 140.438 545.892 141.32 546.98 141.32Z" fill="#A07DF0"/>
<path d="M546.98 148.44C548.068 148.44 548.95 147.558 548.95 146.47C548.95 145.382 548.068 144.5 546.98 144.5C545.892 144.5 545.01 145.382 545.01 146.47C545.01 147.558 545.892 148.44 546.98 148.44Z" fill="#A07DF0"/>
<path d="M546.98 155.55C548.068 155.55 548.95 154.668 548.95 153.58C548.95 152.492 548.068 151.61 546.98 151.61C545.892 151.61 545.01 152.492 545.01 153.58C545.01 154.668 545.892 155.55 546.98 155.55Z" fill="#A07DF0"/>
<path d="M504.87 272.44C502.66 265.37 502.14 259.66 510.12 257.32C518.1 254.98 528.33 253.84 528.35 256.15C528.35 259.59 524.08 262.48 517.8 264.22C522.55 267.11 526.69 278.22 520.64 283.37L504.87 272.44Z" fill="#F1A19E"/>
<path d="M346.83 320.6C345.95 319.81 320.2 296.82 302.2 283.99C306.246 283.016 310.42 282.679 314.57 282.99C314.57 282.99 328.87 298.44 346.83 320.6Z" fill="#0B0E20"/>
<path d="M442.31 239.16H436.49C434.899 239.16 433.61 240.45 433.61 242.04V242.05C433.61 243.641 434.899 244.93 436.49 244.93H442.31C443.9 244.93 445.19 243.641 445.19 242.05V242.04C445.19 240.45 443.9 239.16 442.31 239.16Z" fill="#0B0E20"/>
<path d="M426.76 239.16H420.94C419.349 239.16 418.06 240.45 418.06 242.04V242.05C418.06 243.641 419.349 244.93 420.94 244.93H426.76C428.351 244.93 429.64 243.641 429.64 242.05V242.04C429.64 240.45 428.351 239.16 426.76 239.16Z" fill="#0B0E20"/>
<path d="M426.86 251.41C428.46 252.84 430.71 253.36 431.71 251.83C431.71 251.83 432.28 257.11 429.93 257.15C427.58 257.19 426.93 252.73 426.86 251.41Z" fill="white"/>
<path d="M440.37 241.54H402.77C402.637 241.54 402.51 241.487 402.416 241.394C402.323 241.3 402.27 241.173 402.27 241.04C402.27 240.907 402.323 240.78 402.416 240.686C402.51 240.593 402.637 240.54 402.77 240.54H440.37C440.503 240.54 440.63 240.593 440.724 240.686C440.817 240.78 440.87 240.907 440.87 241.04C440.87 241.173 440.817 241.3 440.724 241.394C440.63 241.487 440.503 241.54 440.37 241.54Z" fill="#0B0E20"/>
<path d="M527.18 265.34C527.047 265.34 526.92 265.287 526.826 265.193C526.733 265.099 526.68 264.972 526.68 264.84C526.68 264.707 526.733 264.58 526.826 264.486C526.92 264.392 527.047 264.34 527.18 264.34C527.97 264.277 528.739 264.057 529.442 263.691C530.144 263.325 530.766 262.821 531.27 262.21C534.419 258.559 536.154 253.901 536.16 249.08C536.157 249.014 536.168 248.948 536.19 248.887C536.213 248.825 536.248 248.768 536.292 248.72C536.337 248.672 536.39 248.633 536.45 248.605C536.51 248.578 536.574 248.562 536.64 248.56C536.772 248.557 536.9 248.605 536.997 248.695C537.094 248.784 537.152 248.908 537.16 249.04C537.153 254.128 535.322 259.046 532 262.9C531.404 263.612 530.669 264.195 529.841 264.615C529.012 265.034 528.107 265.281 527.18 265.34Z" fill="#0B0E20"/>
<path d="M530.75 271.73C530.326 271.733 529.904 271.689 529.49 271.6C529.424 271.587 529.362 271.56 529.307 271.522C529.251 271.484 529.204 271.436 529.167 271.38C529.13 271.324 529.105 271.261 529.093 271.195C529.08 271.129 529.081 271.061 529.095 270.995C529.109 270.93 529.135 270.867 529.173 270.812C529.211 270.757 529.259 270.709 529.316 270.673C529.372 270.636 529.435 270.611 529.501 270.598C529.567 270.586 529.634 270.587 529.7 270.6C530.59 270.743 531.5 270.704 532.375 270.486C533.25 270.268 534.071 269.875 534.79 269.33C536.79 267.95 539.28 264.94 540.12 258.47C540.128 258.405 540.15 258.341 540.183 258.284C540.216 258.227 540.26 258.176 540.312 258.136C540.365 258.096 540.425 258.066 540.489 258.049C540.553 258.031 540.619 258.027 540.685 258.035C540.751 258.044 540.814 258.065 540.871 258.098C540.929 258.131 540.979 258.175 541.019 258.228C541.06 258.28 541.089 258.34 541.107 258.404C541.124 258.468 541.128 258.535 541.12 258.6C540.23 265.43 537.51 268.6 535.37 270.15C534.026 271.134 532.415 271.685 530.75 271.73Z" fill="#0B0E20"/>
<path d="M534.55 277.48C533.694 277.473 532.842 277.369 532.01 277.17C531.877 277.141 531.762 277.06 531.689 276.946C531.615 276.831 531.591 276.692 531.62 276.56C531.649 276.427 531.73 276.312 531.844 276.238C531.959 276.165 532.097 276.141 532.23 276.17C533.246 276.463 534.31 276.545 535.359 276.413C536.408 276.28 537.419 275.936 538.33 275.4C540.45 274.06 541.95 271.4 542.79 267.58C542.818 267.447 542.897 267.331 543.011 267.257C543.124 267.183 543.262 267.157 543.395 267.185C543.528 267.213 543.644 267.292 543.718 267.405C543.792 267.519 543.818 267.657 543.79 267.79C542.89 271.91 541.24 274.79 538.89 276.24C537.594 277.065 536.086 277.496 534.55 277.48Z" fill="#0B0E20"/>
<path d="M402.41 273.13C400.3 273.144 398.248 272.437 396.595 271.125C394.941 269.813 393.786 267.976 393.319 265.918C392.852 263.86 393.103 261.704 394.028 259.808C394.954 257.911 396.5 256.388 398.41 255.49C398.528 255.444 398.659 255.444 398.776 255.491C398.894 255.537 398.99 255.626 399.044 255.74C399.099 255.854 399.108 255.985 399.07 256.105C399.032 256.226 398.95 256.328 398.84 256.39C397.078 257.221 395.666 258.647 394.854 260.418C394.041 262.188 393.881 264.189 394.401 266.066C394.92 267.944 396.087 269.577 397.694 270.678C399.302 271.778 401.246 272.275 403.185 272.081C405.123 271.887 406.93 271.014 408.287 269.616C409.644 268.219 410.464 266.387 410.601 264.443C410.738 262.5 410.184 260.571 409.036 258.997C407.889 257.423 406.222 256.305 404.33 255.84C404.264 255.825 404.203 255.796 404.148 255.756C404.093 255.717 404.047 255.667 404.012 255.609C403.976 255.552 403.953 255.488 403.942 255.421C403.932 255.354 403.934 255.286 403.95 255.22C403.966 255.155 403.994 255.093 404.034 255.038C404.074 254.984 404.124 254.937 404.181 254.902C404.239 254.867 404.303 254.843 404.37 254.833C404.436 254.822 404.504 254.825 404.57 254.84C406.774 255.374 408.706 256.698 409.999 258.561C411.292 260.424 411.856 262.697 411.585 264.948C411.314 267.199 410.226 269.273 408.527 270.776C406.829 272.278 404.638 273.106 402.37 273.1L402.41 273.13Z" fill="white"/>
<path d="M400.36 253.74C400.233 253.74 400.11 253.692 400.017 253.604C399.924 253.517 399.868 253.397 399.86 253.27C399.78 252.696 399.862 252.11 400.097 251.58C400.332 251.05 400.711 250.596 401.19 250.27C401.639 250.019 402.148 249.897 402.662 249.918C403.176 249.94 403.674 250.103 404.1 250.39C404.157 250.424 404.206 250.469 404.245 250.522C404.284 250.575 404.312 250.636 404.328 250.7C404.344 250.764 404.347 250.83 404.337 250.896C404.327 250.961 404.304 251.023 404.27 251.08C404.236 251.136 404.191 251.186 404.138 251.225C404.085 251.264 404.024 251.292 403.96 251.308C403.896 251.324 403.83 251.327 403.764 251.317C403.699 251.307 403.637 251.284 403.58 251.25C403.31 251.059 402.992 250.947 402.662 250.926C402.332 250.905 402.002 250.975 401.71 251.13C401.392 251.364 401.145 251.681 400.995 252.046C400.845 252.411 400.798 252.81 400.86 253.2C400.864 253.266 400.855 253.331 400.834 253.394C400.812 253.456 400.779 253.513 400.735 253.563C400.691 253.612 400.639 253.652 400.579 253.681C400.52 253.709 400.456 253.726 400.39 253.73L400.36 253.74Z" fill="#0B0E20"/>
<path d="M488.26 457.14C488.131 457.14 488.007 457.09 487.913 457.001C487.82 456.911 487.765 456.789 487.76 456.66C487.33 445.43 486.19 415.59 473.65 393.66C447.26 347.49 435 321 434.94 320.81C434.928 320.747 434.928 320.683 434.94 320.62C434.94 320.488 434.993 320.36 435.086 320.267C435.18 320.173 435.307 320.12 435.44 320.12C435.547 320.119 435.651 320.153 435.738 320.216C435.824 320.279 435.888 320.368 435.92 320.47C436.43 321.59 448.74 347.99 474.56 393.16C487.23 415.31 488.37 445.33 488.81 456.63C488.813 456.696 488.802 456.761 488.78 456.823C488.757 456.885 488.722 456.941 488.678 456.99C488.633 457.038 488.58 457.077 488.52 457.105C488.46 457.132 488.396 457.148 488.33 457.15L488.26 457.14Z" fill="#0B0E20"/>
<path d="M432.09 250.11C431.976 250.112 431.864 250.076 431.773 250.006C431.683 249.937 431.619 249.838 431.592 249.727C431.565 249.616 431.577 249.499 431.626 249.396C431.674 249.293 431.757 249.209 431.86 249.16L432.32 248.93C433.09 248.55 433.81 248.19 433.75 247.86C433.59 247.08 432.46 243.27 432.45 243.23C432.432 243.164 432.426 243.095 432.434 243.028C432.443 242.96 432.464 242.894 432.497 242.835C432.531 242.776 432.576 242.723 432.629 242.681C432.683 242.639 432.744 242.608 432.81 242.59C432.876 242.571 432.944 242.566 433.012 242.574C433.08 242.582 433.145 242.604 433.205 242.637C433.264 242.67 433.316 242.715 433.358 242.769C433.4 242.822 433.432 242.884 433.45 242.95C433.45 243.11 434.6 246.84 434.77 247.66C435 248.74 433.93 249.27 432.77 249.83L432.32 250.06C432.248 250.094 432.17 250.111 432.09 250.11Z" fill="#0B0E20"/>
<path d="M499.66 382.55C499.562 382.551 499.467 382.523 499.385 382.469C499.303 382.416 499.239 382.34 499.2 382.25C497.06 377.42 494.54 371.92 491.88 366.11C485 351.15 478 335.69 476.51 330C476.493 329.937 476.49 329.87 476.499 329.805C476.508 329.74 476.53 329.677 476.563 329.621C476.597 329.564 476.641 329.515 476.694 329.475C476.746 329.435 476.806 329.407 476.87 329.39C476.934 329.372 477 329.368 477.066 329.376C477.132 329.385 477.195 329.406 477.252 329.44C477.309 329.474 477.358 329.519 477.398 329.572C477.437 329.625 477.465 329.686 477.48 329.75C478.9 335.37 485.96 350.75 492.79 365.75C495.45 371.57 497.97 377.07 500.11 381.9C500.143 381.977 500.157 382.06 500.15 382.143C500.143 382.226 500.115 382.306 500.07 382.375C500.024 382.445 499.962 382.502 499.888 382.541C499.815 382.58 499.733 382.601 499.65 382.6L499.66 382.55Z" fill="#0B0E20"/>
<path d="M486.44 418.74C487.26 417.9 486.73 414.21 485.6 413.53C484.94 413.13 480.91 412.94 479.29 414.63L479.36 418.74C479.36 418.74 483.54 421.72 486.44 418.74Z" fill="white"/>
<path d="M353 422.89C352.893 422.891 352.789 422.858 352.703 422.795C352.616 422.732 352.552 422.644 352.52 422.542C352.487 422.44 352.488 422.331 352.523 422.23C352.557 422.129 352.622 422.041 352.71 421.98C359.79 416.98 364.55 413.04 366.23 403.47C366.24 403.404 366.262 403.341 366.297 403.285C366.332 403.228 366.378 403.179 366.432 403.141C366.486 403.102 366.548 403.075 366.613 403.062C366.678 403.048 366.745 403.047 366.81 403.06C366.875 403.071 366.937 403.095 366.993 403.13C367.049 403.165 367.098 403.211 367.136 403.265C367.174 403.319 367.201 403.38 367.215 403.444C367.23 403.508 367.231 403.575 367.22 403.64C365.47 413.64 360.57 417.64 353.29 422.79C353.206 422.853 353.105 422.888 353 422.89Z" fill="#0B0E20"/>
<path d="M366.76 417.32C366.664 417.319 366.571 417.29 366.491 417.237C366.411 417.185 366.348 417.111 366.309 417.023C366.27 416.936 366.257 416.839 366.271 416.745C366.286 416.65 366.327 416.561 366.39 416.49C372.54 409.55 373.27 405.24 373.13 401.62C373.127 401.554 373.138 401.488 373.16 401.427C373.183 401.365 373.218 401.308 373.262 401.26C373.307 401.212 373.36 401.173 373.42 401.145C373.48 401.118 373.544 401.102 373.61 401.1C373.739 401.1 373.863 401.149 373.957 401.239C374.05 401.328 374.105 401.45 374.11 401.58C374.3 406.82 372.28 411.33 367.11 417.15C367.066 417.2 367.012 417.241 366.952 417.27C366.892 417.299 366.827 417.316 366.76 417.32Z" fill="#0B0E20"/>
<path d="M376.18 412.19C376.09 412.19 376.002 412.166 375.925 412.12C375.848 412.074 375.785 412.008 375.742 411.93C375.699 411.851 375.678 411.762 375.681 411.672C375.684 411.583 375.712 411.496 375.76 411.42C380.02 404.92 380.66 402.28 380.42 397.68C380.416 397.614 380.425 397.549 380.446 397.486C380.468 397.424 380.501 397.367 380.545 397.318C380.589 397.268 380.642 397.228 380.701 397.199C380.76 397.171 380.824 397.154 380.89 397.15C380.956 397.145 381.022 397.153 381.085 397.174C381.148 397.194 381.206 397.228 381.256 397.272C381.305 397.316 381.345 397.369 381.373 397.429C381.402 397.489 381.418 397.554 381.42 397.62C381.69 402.75 380.7 405.7 376.6 411.96C376.555 412.031 376.493 412.088 376.419 412.129C376.346 412.169 376.264 412.19 376.18 412.19Z" fill="#0B0E20"/>
<path d="M657.98 88.3896H626.84V119.53H657.98V88.3896Z" fill="#B7D1FF"/>
<path d="M657.98 111.31V119.53H626.84V111.89L638.09 96.3496L647.17 109.24L651.76 102.67L657.98 111.31Z" fill="white"/>
<path d="M648.61 100.03C650.642 100.03 652.29 98.3823 652.29 96.3499C652.29 94.3175 650.642 92.6699 648.61 92.6699C646.578 92.6699 644.93 94.3175 644.93 96.3499C644.93 98.3823 646.578 100.03 648.61 100.03Z" fill="white"/>
<path d="M211.08 199.57C223.694 199.57 233.92 189.344 233.92 176.73C233.92 164.115 223.694 153.89 211.08 153.89C198.466 153.89 188.24 164.115 188.24 176.73C188.24 189.344 198.466 199.57 211.08 199.57Z" fill="#A07DF0"/>
<path d="M145.44 125.95C155.702 125.95 164.02 117.631 164.02 107.37C164.02 97.1086 155.702 88.79 145.44 88.79C135.179 88.79 126.86 97.1086 126.86 107.37C126.86 117.631 135.179 125.95 145.44 125.95Z" fill="#6788EC"/>
<path d="M155.05 105.11C154.547 102.941 153.322 101.006 151.577 99.6236C149.831 98.2411 147.667 97.4924 145.44 97.5001C144.593 97.5 143.75 97.6075 142.93 97.8201C141.194 98.2707 139.614 99.1885 138.362 100.474C137.11 101.759 136.235 103.362 135.83 105.11C135.651 105.85 135.561 106.609 135.56 107.37C135.56 109.99 136.601 112.503 138.454 114.356C140.307 116.209 142.82 117.25 145.44 117.25C148.06 117.25 150.573 116.209 152.426 114.356C154.279 112.503 155.32 109.99 155.32 107.37C155.32 106.609 155.229 105.85 155.05 105.11ZM145.44 115.26C144.44 115.26 142.83 112.14 142.82 107.44C143.69 107.51 144.56 107.56 145.44 107.56C146.32 107.56 147.19 107.56 148.06 107.44C148 112.14 146.48 115.25 145.44 115.25V115.26ZM138.09 104.56C138.213 104.217 138.36 103.883 138.53 103.56L138.6 103.44C138.779 103.123 138.979 102.819 139.2 102.53C139.424 102.243 139.668 101.973 139.93 101.72L139.99 101.66C140.248 101.418 140.522 101.195 140.81 100.99L140.94 100.9C141.225 100.704 141.522 100.527 141.83 100.37L141.99 100.29L142.15 100.22C141.462 101.806 141.043 103.496 140.91 105.22C139.944 105.085 138.986 104.898 138.04 104.66L138.09 104.56ZM147.97 105.44C146.286 105.575 144.594 105.575 142.91 105.44C143.26 101.8 144.54 99.5001 145.44 99.4901C146.34 99.5001 147.62 101.8 148 105.44H147.97ZM148.72 100.22L148.87 100.28L149.04 100.36C149.341 100.514 149.632 100.688 149.91 100.88L150.05 100.98C150.331 101.182 150.598 101.403 150.85 101.64L150.94 101.73C151.187 101.971 151.417 102.228 151.63 102.5L151.69 102.57C151.903 102.853 152.097 103.151 152.27 103.46L152.36 103.61C152.526 103.933 152.67 104.267 152.79 104.61V104.71C151.844 104.948 150.886 105.135 149.92 105.27C149.805 103.531 149.4 101.824 148.72 100.22ZM137.56 107.38C137.56 107.12 137.56 106.86 137.56 106.6C138.617 106.87 139.689 107.08 140.77 107.23C140.77 107.23 140.77 107.33 140.77 107.38C140.717 109.835 141.177 112.273 142.12 114.54C140.754 113.906 139.599 112.893 138.791 111.622C137.983 110.352 137.556 108.876 137.56 107.37V107.38ZM148.72 114.54C149.663 112.273 150.123 109.835 150.07 107.38C150.07 107.38 150.07 107.28 150.07 107.23C151.151 107.081 152.223 106.87 153.28 106.6C153.28 106.86 153.28 107.12 153.28 107.38C153.281 108.883 152.852 110.354 152.044 111.621C151.236 112.888 150.083 113.897 148.72 114.53V114.54Z" fill="white"/>
<path d="M167.04 292.23C178.268 292.23 187.37 283.128 187.37 271.9C187.37 260.672 178.268 251.57 167.04 251.57C155.812 251.57 146.71 260.672 146.71 271.9C146.71 283.128 155.812 292.23 167.04 292.23Z" fill="#6788EC"/>
<path d="M219.87 176.73L207.1 167.24V186.23L219.87 176.73Z" fill="white"/>
<path d="M178.62 271L169.14 263V266.69C157.55 266.17 149.76 274.6 160.73 280.79C157.32 276.34 157.91 271.64 169.14 272.65V279L178.62 271Z" fill="white"/>
</svg>
